<svg xmlns="http://www.w3.org/2000/svg" viewBox="0 0 800 1234" width="800" height="1234" role="img"><title>Чтение</title><rect width="800" height="1234" rx="10" fill="#faf9f4"/><g transform="translate(20,20)"><rect x="0.0" y="3.0" width="12" height="12" rx="3" fill="#eb6834"/><text x="18.0" y="13.5" font-family="system-ui, -apple-system, 'Segoe UI', Roboto, sans-serif" font-size="13" fill="#1e1b15">hare (драйвер на Rust)</text><rect x="198.4" y="3.0" width="12" height="12" rx="3" fill="#2a78d6"/><text x="216.4" y="13.5" font-family="system-ui, -apple-system, 'Segoe UI', Roboto, sans-serif" font-size="13" fill="#1e1b15">hare (asyncpg)</text><rect x="339.2" y="3.0" width="12" height="12" rx="3" fill="#1baf7a"/><text x="357.2" y="13.5" font-family="system-ui, -apple-system, 'Segoe UI', Roboto, sans-serif" font-size="13" fill="#1e1b15">SQLAlchemy</text><rect x="451.2" y="3.0" width="12" height="12" rx="3" fill="#eda100"/><text x="469.2" y="13.5" font-family="system-ui, -apple-system, 'Segoe UI', Roboto, sans-serif" font-size="13" fill="#1e1b15">SQLAlchemy (autocommit)</text><rect x="0.0" y="25.0" width="12" height="12" rx="3" fill="#e87ba4"/><text x="18.0" y="35.5" font-family="system-ui, -apple-system, 'Segoe UI', Roboto, sans-serif" font-size="13" fill="#1e1b15">tortoise-orm</text><rect x="126.4" y="25.0" width="12" height="12" rx="3" fill="#4a3aa7"/><text x="144.4" y="35.5" font-family="system-ui, -apple-system, 'Segoe UI', Roboto, sans-serif" font-size="13" fill="#1e1b15">yara-orm</text><rect x="224.0" y="25.0" width="12" height="12" rx="3" fill="#008300"/><text x="242.0" y="35.5" font-family="system-ui, -apple-system, 'Segoe UI', Roboto, sans-serif" font-size="13" fill="#1e1b15">Django</text><text x="0.0" y="72.0" font-family="system-ui, -apple-system, 'Segoe UI', Roboto, sans-serif" font-size="13.5" fill="#1e1b15" font-weight="600">Все 1000 строк</text><path d="M0.0,82.0 H106.7 Q110.7,82.0 110.7,86.0 V88.0 Q110.7,92.0 106.7,92.0 H0.0 Z" fill="#eb6834"/><line x1="105.7" y1="87.0" x2="119.4" y2="87.0" stroke="#1e1b15" stroke-opacity="0.55" stroke-width="1.5"/><text x="125.4" y="91.0" font-family="ui-monospace, SFMono-Regular, Consolas, 'Liberation Mono', monospace" font-size="11" fill="#1e1b15" font-weight="700">6,34 мс</text><path d="M0.0,96.0 H119.2 Q123.2,96.0 123.2,100.0 V102.0 Q123.2,106.0 119.2,106.0 H0.0 Z" fill="#2a78d6"/><line x1="120.6" y1="101.0" x2="130.8" y2="101.0" stroke="#1e1b15" stroke-opacity="0.55" stroke-width="1.5"/><text x="136.8" y="105.0" font-family="ui-monospace, SFMono-Regular, Consolas, 'Liberation Mono', monospace" font-size="11" fill="#6e6654" font-weight="400">7,06 мс</text><path d="M0.0,110.0 H198.4 Q202.4,110.0 202.4,114.0 V116.0 Q202.4,120.0 198.4,120.0 H0.0 Z" fill="#1baf7a"/><line x1="185.0" y1="115.0" x2="214.1" y2="115.0" stroke="#1e1b15" stroke-opacity="0.55" stroke-width="1.5"/><text x="220.1" y="119.0" font-family="ui-monospace, SFMono-Regular, Consolas, 'Liberation Mono', monospace" font-size="11" fill="#6e6654" font-weight="400">11,6 мс</text><path d="M0.0,124.0 H179.1 Q183.1,124.0 183.1,128.0 V130.0 Q183.1,134.0 179.1,134.0 H0.0 Z" fill="#eda100"/><line x1="178.9" y1="129.0" x2="189.7" y2="129.0" stroke="#1e1b15" stroke-opacity="0.55" stroke-width="1.5"/><text x="195.7" y="133.0" font-family="ui-monospace, SFMono-Regular, Consolas, 'Liberation Mono', monospace" font-size="11" fill="#6e6654" font-weight="400">10,5 мс</text><path d="M0.0,138.0 H183.2 Q187.2,138.0 187.2,142.0 V144.0 Q187.2,148.0 183.2,148.0 H0.0 Z" fill="#e87ba4"/><line x1="170.8" y1="143.0" x2="213.6" y2="143.0" stroke="#1e1b15" stroke-opacity="0.55" stroke-width="1.5"/><text x="219.6" y="147.0" font-family="ui-monospace, SFMono-Regular, Consolas, 'Liberation Mono', monospace" font-size="11" fill="#6e6654" font-weight="400">10,7 мс</text><path d="M0.0,152.0 H245.7 Q249.7,152.0 249.7,156.0 V158.0 Q249.7,162.0 245.7,162.0 H0.0 Z" fill="#4a3aa7"/><line x1="248.9" y1="157.0" x2="274.0" y2="157.0" stroke="#1e1b15" stroke-opacity="0.55" stroke-width="1.5"/><text x="280.0" y="161.0" font-family="ui-monospace, SFMono-Regular, Consolas, 'Liberation Mono', monospace" font-size="11" fill="#6e6654" font-weight="400">14,3 мс</text><path d="M0.0,166.0 H204.9 Q208.9,166.0 208.9,170.0 V172.0 Q208.9,176.0 204.9,176.0 H0.0 Z" fill="#008300"/><line x1="206.8" y1="171.0" x2="212.3" y2="171.0" stroke="#1e1b15" stroke-opacity="0.55" stroke-width="1.5"/><text x="218.3" y="175.0" font-family="ui-monospace, SFMono-Regular, Consolas, 'Liberation Mono', monospace" font-size="11" fill="#6e6654" font-weight="400">12,0 мс</text><text x="398.0" y="72.0" font-family="system-ui, -apple-system, 'Segoe UI', Roboto, sans-serif" font-size="13.5" fill="#1e1b15" font-weight="600">200 × get() по ключу</text><path d="M398.0,82.0 H519.9 Q523.9,82.0 523.9,86.0 V88.0 Q523.9,92.0 519.9,92.0 H398.0 Z" fill="#eb6834"/><line x1="522.2" y1="87.0" x2="533.7" y2="87.0" stroke="#1e1b15" stroke-opacity="0.55" stroke-width="1.5"/><text x="539.7" y="91.0" font-family="ui-monospace, SFMono-Regular, Consolas, 'Liberation Mono', monospace" font-size="11" fill="#1e1b15" font-weight="700">89,8 мс</text><path d="M398.0,96.0 H528.7 Q532.7,96.0 532.7,100.0 V102.0 Q532.7,106.0 528.7,106.0 H398.0 Z" fill="#2a78d6"/><line x1="529.4" y1="101.0" x2="532.8" y2="101.0" stroke="#1e1b15" stroke-opacity="0.55" stroke-width="1.5"/><text x="538.8" y="105.0" font-family="ui-monospace, SFMono-Regular, Consolas, 'Liberation Mono', monospace" font-size="11" fill="#6e6654" font-weight="400">96,1 мс</text><path d="M398.0,110.0 H566.7 Q570.7,110.0 570.7,114.0 V116.0 Q570.7,120.0 566.7,120.0 H398.0 Z" fill="#1baf7a"/><line x1="564.3" y1="115.0" x2="591.4" y2="115.0" stroke="#1e1b15" stroke-opacity="0.55" stroke-width="1.5"/><text x="597.4" y="119.0" font-family="ui-monospace, SFMono-Regular, Consolas, 'Liberation Mono', monospace" font-size="11" fill="#6e6654" font-weight="400">123 мс</text><path d="M398.0,124.0 H566.0 Q570.0,124.0 570.0,128.0 V130.0 Q570.0,134.0 566.0,134.0 H398.0 Z" fill="#eda100"/><line x1="569.2" y1="129.0" x2="576.5" y2="129.0" stroke="#1e1b15" stroke-opacity="0.55" stroke-width="1.5"/><text x="582.5" y="133.0" font-family="ui-monospace, SFMono-Regular, Consolas, 'Liberation Mono', monospace" font-size="11" fill="#6e6654" font-weight="400">123 мс</text><path d="M398.0,138.0 H663.8 Q667.8,138.0 667.8,142.0 V144.0 Q667.8,148.0 663.8,148.0 H398.0 Z" fill="#e87ba4"/><line x1="652.7" y1="143.0" x2="672.0" y2="143.0" stroke="#1e1b15" stroke-opacity="0.55" stroke-width="1.5"/><text x="678.0" y="147.0" font-family="ui-monospace, SFMono-Regular, Consolas, 'Liberation Mono', monospace" font-size="11" fill="#6e6654" font-weight="400">193 мс</text><path d="M398.0,152.0 H537.7 Q541.7,152.0 541.7,156.0 V158.0 Q541.7,162.0 537.7,162.0 H398.0 Z" fill="#4a3aa7"/><line x1="538.2" y1="157.0" x2="564.7" y2="157.0" stroke="#1e1b15" stroke-opacity="0.55" stroke-width="1.5"/><text x="570.7" y="161.0" font-family="ui-monospace, SFMono-Regular, Consolas, 'Liberation Mono', monospace" font-size="11" fill="#6e6654" font-weight="400">103 мс</text><path d="M398.0,166.0 H628.5 Q632.5,166.0 632.5,170.0 V172.0 Q632.5,176.0 628.5,176.0 H398.0 Z" fill="#008300"/><line x1="632.1" y1="171.0" x2="639.7" y2="171.0" stroke="#1e1b15" stroke-opacity="0.55" stroke-width="1.5"/><text x="645.7" y="175.0" font-family="ui-monospace, SFMono-Regular, Consolas, 'Liberation Mono', monospace" font-size="11" fill="#6e6654" font-weight="400">167 мс</text><text x="0.0" y="214.0" font-family="system-ui, -apple-system, 'Segoe UI', Roboto, sans-serif" font-size="13.5" fill="#1e1b15" font-weight="600">200 × first()</text><path d="M0.0,224.0 H131.6 Q135.6,224.0 135.6,228.0 V230.0 Q135.6,234.0 131.6,234.0 H0.0 Z" fill="#eb6834"/><line x1="127.9" y1="229.0" x2="147.7" y2="229.0" stroke="#1e1b15" stroke-opacity="0.55" stroke-width="1.5"/><text x="153.7" y="233.0" font-family="ui-monospace, SFMono-Regular, Consolas, 'Liberation Mono', monospace" font-size="11" fill="#1e1b15" font-weight="700">107 мс</text><path d="M0.0,238.0 H132.9 Q136.9,238.0 136.9,242.0 V244.0 Q136.9,248.0 132.9,248.0 H0.0 Z" fill="#2a78d6"/><line x1="136.7" y1="243.0" x2="145.5" y2="243.0" stroke="#1e1b15" stroke-opacity="0.55" stroke-width="1.5"/><text x="151.5" y="247.0" font-family="ui-monospace, SFMono-Regular, Consolas, 'Liberation Mono', monospace" font-size="11" fill="#6e6654" font-weight="400">108 мс</text><path d="M0.0,252.0 H179.0 Q183.0,252.0 183.0,256.0 V258.0 Q183.0,262.0 179.0,262.0 H0.0 Z" fill="#1baf7a"/><line x1="181.8" y1="257.0" x2="187.6" y2="257.0" stroke="#1e1b15" stroke-opacity="0.55" stroke-width="1.5"/><text x="193.6" y="261.0" font-family="ui-monospace, SFMono-Regular, Consolas, 'Liberation Mono', monospace" font-size="11" fill="#6e6654" font-weight="400">144 мс</text><path d="M0.0,266.0 H178.9 Q182.9,266.0 182.9,270.0 V272.0 Q182.9,276.0 178.9,276.0 H0.0 Z" fill="#eda100"/><line x1="176.5" y1="271.0" x2="183.0" y2="271.0" stroke="#1e1b15" stroke-opacity="0.55" stroke-width="1.5"/><text x="189.0" y="275.0" font-family="ui-monospace, SFMono-Regular, Consolas, 'Liberation Mono', monospace" font-size="11" fill="#6e6654" font-weight="400">144 мс</text><path d="M0.0,280.0 H250.9 Q254.9,280.0 254.9,284.0 V286.0 Q254.9,290.0 250.9,290.0 H0.0 Z" fill="#e87ba4"/><line x1="254.2" y1="285.0" x2="274.0" y2="285.0" stroke="#1e1b15" stroke-opacity="0.55" stroke-width="1.5"/><text x="280.0" y="289.0" font-family="ui-monospace, SFMono-Regular, Consolas, 'Liberation Mono', monospace" font-size="11" fill="#6e6654" font-weight="400">201 мс</text><path d="M0.0,294.0 H132.6 Q136.6,294.0 136.6,298.0 V300.0 Q136.6,304.0 132.6,304.0 H0.0 Z" fill="#4a3aa7"/><line x1="135.2" y1="299.0" x2="144.0" y2="299.0" stroke="#1e1b15" stroke-opacity="0.55" stroke-width="1.5"/><text x="150.0" y="303.0" font-family="ui-monospace, SFMono-Regular, Consolas, 'Liberation Mono', monospace" font-size="11" fill="#6e6654" font-weight="400">108 мс</text><path d="M0.0,308.0 H237.1 Q241.1,308.0 241.1,312.0 V314.0 Q241.1,318.0 237.1,318.0 H0.0 Z" fill="#008300"/><line x1="237.7" y1="313.0" x2="243.7" y2="313.0" stroke="#1e1b15" stroke-opacity="0.55" stroke-width="1.5"/><text x="249.7" y="317.0" font-family="ui-monospace, SFMono-Regular, Consolas, 'Liberation Mono', monospace" font-size="11" fill="#6e6654" font-weight="400">190 мс</text><text x="398.0" y="214.0" font-family="system-ui, -apple-system, 'Segoe UI', Roboto, sans-serif" font-size="13.5" fill="#1e1b15" font-weight="600">Страница, LIMIT/OFFSET</text><path d="M398.0,224.0 H487.8 Q491.8,224.0 491.8,228.0 V230.0 Q491.8,234.0 487.8,234.0 H398.0 Z" fill="#eb6834"/><line x1="485.5" y1="229.0" x2="492.3" y2="229.0" stroke="#1e1b15" stroke-opacity="0.55" stroke-width="1.5"/><text x="498.3" y="233.0" font-family="ui-monospace, SFMono-Regular, Consolas, 'Liberation Mono', monospace" font-size="11" fill="#6e6654" font-weight="400">1,22 мс</text><path d="M398.0,238.0 H485.5 Q489.5,238.0 489.5,242.0 V244.0 Q489.5,248.0 485.5,248.0 H398.0 Z" fill="#2a78d6"/><line x1="482.8" y1="243.0" x2="504.0" y2="243.0" stroke="#1e1b15" stroke-opacity="0.55" stroke-width="1.5"/><text x="510.0" y="247.0" font-family="ui-monospace, SFMono-Regular, Consolas, 'Liberation Mono', monospace" font-size="11" fill="#1e1b15" font-weight="700">1,19 мс</text><path d="M398.0,252.0 H667.6 Q671.6,252.0 671.6,256.0 V258.0 Q671.6,262.0 667.6,262.0 H398.0 Z" fill="#1baf7a"/><line x1="664.6" y1="257.0" x2="672.0" y2="257.0" stroke="#1e1b15" stroke-opacity="0.55" stroke-width="1.5"/><text x="678.0" y="261.0" font-family="ui-monospace, SFMono-Regular, Consolas, 'Liberation Mono', monospace" font-size="11" fill="#6e6654" font-weight="400">3,55 мс</text><path d="M398.0,266.0 H591.8 Q595.8,266.0 595.8,270.0 V272.0 Q595.8,276.0 591.8,276.0 H398.0 Z" fill="#eda100"/><line x1="592.6" y1="271.0" x2="610.5" y2="271.0" stroke="#1e1b15" stroke-opacity="0.55" stroke-width="1.5"/><text x="616.5" y="275.0" font-family="ui-monospace, SFMono-Regular, Consolas, 'Liberation Mono', monospace" font-size="11" fill="#6e6654" font-weight="400">2,57 мс</text><path d="M398.0,280.0 H543.4 Q547.4,280.0 547.4,284.0 V286.0 Q547.4,290.0 543.4,290.0 H398.0 Z" fill="#e87ba4"/><line x1="541.6" y1="285.0" x2="577.8" y2="285.0" stroke="#1e1b15" stroke-opacity="0.55" stroke-width="1.5"/><text x="583.8" y="289.0" font-family="ui-monospace, SFMono-Regular, Consolas, 'Liberation Mono', monospace" font-size="11" fill="#6e6654" font-weight="400">1,94 мс</text><path d="M398.0,294.0 H540.8 Q544.8,294.0 544.8,298.0 V300.0 Q544.8,304.0 540.8,304.0 H398.0 Z" fill="#4a3aa7"/><line x1="544.0" y1="299.0" x2="546.5" y2="299.0" stroke="#1e1b15" stroke-opacity="0.55" stroke-width="1.5"/><text x="552.5" y="303.0" font-family="ui-monospace, SFMono-Regular, Consolas, 'Liberation Mono', monospace" font-size="11" fill="#6e6654" font-weight="400">1,90 мс</text><path d="M398.0,308.0 H544.1 Q548.1,308.0 548.1,312.0 V314.0 Q548.1,318.0 544.1,318.0 H398.0 Z" fill="#008300"/><line x1="546.0" y1="313.0" x2="550.0" y2="313.0" stroke="#1e1b15" stroke-opacity="0.55" stroke-width="1.5"/><text x="556.0" y="317.0" font-family="ui-monospace, SFMono-Regular, Consolas, 'Liberation Mono', monospace" font-size="11" fill="#6e6654" font-weight="400">1,95 мс</text><text x="0.0" y="356.0" font-family="system-ui, -apple-system, 'Segoe UI', Roboto, sans-serif" font-size="13.5" fill="#1e1b15" font-weight="600">order_by() + первые 10</text><path d="M0.0,366.0 H156.8 Q160.8,366.0 160.8,370.0 V372.0 Q160.8,376.0 156.8,376.0 H0.0 Z" fill="#eb6834"/><line x1="158.3" y1="371.0" x2="167.2" y2="371.0" stroke="#1e1b15" stroke-opacity="0.55" stroke-width="1.5"/><text x="173.2" y="375.0" font-family="ui-monospace, SFMono-Regular, Consolas, 'Liberation Mono', monospace" font-size="11" fill="#1e1b15" font-weight="700">4,02 мс</text><path d="M0.0,380.0 H159.7 Q163.7,380.0 163.7,384.0 V386.0 Q163.7,390.0 159.7,390.0 H0.0 Z" fill="#2a78d6"/><line x1="160.6" y1="385.0" x2="165.0" y2="385.0" stroke="#1e1b15" stroke-opacity="0.55" stroke-width="1.5"/><text x="171.0" y="389.0" font-family="ui-monospace, SFMono-Regular, Consolas, 'Liberation Mono', monospace" font-size="11" fill="#6e6654" font-weight="400">4,09 мс</text><path d="M0.0,394.0 H249.6 Q253.6,394.0 253.6,398.0 V400.0 Q253.6,404.0 249.6,404.0 H0.0 Z" fill="#1baf7a"/><line x1="253.5" y1="399.0" x2="274.0" y2="399.0" stroke="#1e1b15" stroke-opacity="0.55" stroke-width="1.5"/><text x="280.0" y="403.0" font-family="ui-monospace, SFMono-Regular, Consolas, 'Liberation Mono', monospace" font-size="11" fill="#6e6654" font-weight="400">6,34 мс</text><path d="M0.0,408.0 H214.0 Q218.0,408.0 218.0,412.0 V414.0 Q218.0,418.0 214.0,418.0 H0.0 Z" fill="#eda100"/><line x1="212.8" y1="413.0" x2="228.8" y2="413.0" stroke="#1e1b15" stroke-opacity="0.55" stroke-width="1.5"/><text x="234.8" y="417.0" font-family="ui-monospace, SFMono-Regular, Consolas, 'Liberation Mono', monospace" font-size="11" fill="#6e6654" font-weight="400">5,45 мс</text><path d="M0.0,422.0 H180.4 Q184.4,422.0 184.4,426.0 V428.0 Q184.4,432.0 180.4,432.0 H0.0 Z" fill="#e87ba4"/><line x1="176.8" y1="427.0" x2="213.1" y2="427.0" stroke="#1e1b15" stroke-opacity="0.55" stroke-width="1.5"/><text x="219.1" y="431.0" font-family="ui-monospace, SFMono-Regular, Consolas, 'Liberation Mono', monospace" font-size="11" fill="#6e6654" font-weight="400">4,61 мс</text><path d="M0.0,436.0 H181.5 Q185.5,436.0 185.5,440.0 V442.0 Q185.5,446.0 181.5,446.0 H0.0 Z" fill="#4a3aa7"/><line x1="182.7" y1="441.0" x2="190.5" y2="441.0" stroke="#1e1b15" stroke-opacity="0.55" stroke-width="1.5"/><text x="196.5" y="445.0" font-family="ui-monospace, SFMono-Regular, Consolas, 'Liberation Mono', monospace" font-size="11" fill="#6e6654" font-weight="400">4,64 мс</text><path d="M0.0,450.0 H179.0 Q183.0,450.0 183.0,454.0 V456.0 Q183.0,460.0 179.0,460.0 H0.0 Z" fill="#008300"/><line x1="177.1" y1="455.0" x2="186.2" y2="455.0" stroke="#1e1b15" stroke-opacity="0.55" stroke-width="1.5"/><text x="192.2" y="459.0" font-family="ui-monospace, SFMono-Regular, Consolas, 'Liberation Mono', monospace" font-size="11" fill="#6e6654" font-weight="400">4,58 мс</text><text x="398.0" y="356.0" font-family="system-ui, -apple-system, 'Segoe UI', Roboto, sans-serif" font-size="13.5" fill="#1e1b15" font-weight="600">Фильтр по двум полям</text><path d="M398.0,366.0 H486.6 Q490.6,366.0 490.6,370.0 V372.0 Q490.6,376.0 486.6,376.0 H398.0 Z" fill="#eb6834"/><line x1="488.4" y1="371.0" x2="502.3" y2="371.0" stroke="#1e1b15" stroke-opacity="0.55" stroke-width="1.5"/><text x="508.3" y="375.0" font-family="ui-monospace, SFMono-Regular, Consolas, 'Liberation Mono', monospace" font-size="11" fill="#6e6654" font-weight="400">1,57 мс</text><path d="M398.0,380.0 H482.4 Q486.4,380.0 486.4,384.0 V386.0 Q486.4,390.0 482.4,390.0 H398.0 Z" fill="#2a78d6"/><line x1="480.9" y1="385.0" x2="487.7" y2="385.0" stroke="#1e1b15" stroke-opacity="0.55" stroke-width="1.5"/><text x="493.7" y="389.0" font-family="ui-monospace, SFMono-Regular, Consolas, 'Liberation Mono', monospace" font-size="11" fill="#1e1b15" font-weight="700">1,49 мс</text><path d="M398.0,394.0 H667.1 Q671.1,394.0 671.1,398.0 V400.0 Q671.1,404.0 667.1,404.0 H398.0 Z" fill="#1baf7a"/><line x1="659.4" y1="399.0" x2="672.0" y2="399.0" stroke="#1e1b15" stroke-opacity="0.55" stroke-width="1.5"/><text x="678.0" y="403.0" font-family="ui-monospace, SFMono-Regular, Consolas, 'Liberation Mono', monospace" font-size="11" fill="#6e6654" font-weight="400">4,62 мс</text><path d="M398.0,408.0 H612.6 Q616.6,408.0 616.6,412.0 V414.0 Q616.6,418.0 612.6,418.0 H398.0 Z" fill="#eda100"/><line x1="612.7" y1="413.0" x2="619.0" y2="413.0" stroke="#1e1b15" stroke-opacity="0.55" stroke-width="1.5"/><text x="625.0" y="417.0" font-family="ui-monospace, SFMono-Regular, Consolas, 'Liberation Mono', monospace" font-size="11" fill="#6e6654" font-weight="400">3,70 мс</text><path d="M398.0,422.0 H526.1 Q530.1,422.0 530.1,426.0 V428.0 Q530.1,432.0 526.1,432.0 H398.0 Z" fill="#e87ba4"/><line x1="526.1" y1="427.0" x2="541.3" y2="427.0" stroke="#1e1b15" stroke-opacity="0.55" stroke-width="1.5"/><text x="547.3" y="431.0" font-family="ui-monospace, SFMono-Regular, Consolas, 'Liberation Mono', monospace" font-size="11" fill="#6e6654" font-weight="400">2,24 мс</text><path d="M398.0,436.0 H591.1 Q595.1,436.0 595.1,440.0 V442.0 Q595.1,446.0 591.1,446.0 H398.0 Z" fill="#4a3aa7"/><line x1="567.7" y1="441.0" x2="595.9" y2="441.0" stroke="#1e1b15" stroke-opacity="0.55" stroke-width="1.5"/><text x="601.9" y="445.0" font-family="ui-monospace, SFMono-Regular, Consolas, 'Liberation Mono', monospace" font-size="11" fill="#6e6654" font-weight="400">3,33 мс</text><path d="M398.0,450.0 H531.7 Q535.7,450.0 535.7,454.0 V456.0 Q535.7,460.0 531.7,460.0 H398.0 Z" fill="#008300"/><line x1="534.7" y1="455.0" x2="539.5" y2="455.0" stroke="#1e1b15" stroke-opacity="0.55" stroke-width="1.5"/><text x="545.5" y="459.0" font-family="ui-monospace, SFMono-Regular, Consolas, 'Liberation Mono', monospace" font-size="11" fill="#6e6654" font-weight="400">2,33 мс</text><text x="0.0" y="498.0" font-family="system-ui, -apple-system, 'Segoe UI', Roboto, sans-serif" font-size="13.5" fill="#1e1b15" font-weight="600">Поиск icontains</text><path d="M0.0,508.0 H95.6 Q99.6,508.0 99.6,512.0 V514.0 Q99.6,518.0 95.6,518.0 H0.0 Z" fill="#eb6834"/><line x1="92.5" y1="513.0" x2="107.0" y2="513.0" stroke="#1e1b15" stroke-opacity="0.55" stroke-width="1.5"/><text x="113.0" y="517.0" font-family="ui-monospace, SFMono-Regular, Consolas, 'Liberation Mono', monospace" font-size="11" fill="#6e6654" font-weight="400">1,82 мс</text><path d="M0.0,522.0 H89.8 Q93.8,522.0 93.8,526.0 V528.0 Q93.8,532.0 89.8,532.0 H0.0 Z" fill="#2a78d6"/><line x1="92.6" y1="527.0" x2="95.5" y2="527.0" stroke="#1e1b15" stroke-opacity="0.55" stroke-width="1.5"/><text x="101.5" y="531.0" font-family="ui-monospace, SFMono-Regular, Consolas, 'Liberation Mono', monospace" font-size="11" fill="#1e1b15" font-weight="700">1,71 мс</text><path d="M0.0,536.0 H259.7 Q263.7,536.0 263.7,540.0 V542.0 Q263.7,546.0 259.7,546.0 H0.0 Z" fill="#1baf7a"/><line x1="255.7" y1="541.0" x2="274.0" y2="541.0" stroke="#1e1b15" stroke-opacity="0.55" stroke-width="1.5"/><text x="280.0" y="545.0" font-family="ui-monospace, SFMono-Regular, Consolas, 'Liberation Mono', monospace" font-size="11" fill="#6e6654" font-weight="400">4,82 мс</text><path d="M0.0,550.0 H219.3 Q223.3,550.0 223.3,554.0 V556.0 Q223.3,560.0 219.3,560.0 H0.0 Z" fill="#eda100"/><line x1="217.1" y1="555.0" x2="235.7" y2="555.0" stroke="#1e1b15" stroke-opacity="0.55" stroke-width="1.5"/><text x="241.7" y="559.0" font-family="ui-monospace, SFMono-Regular, Consolas, 'Liberation Mono', monospace" font-size="11" fill="#6e6654" font-weight="400">4,08 мс</text><path d="M0.0,564.0 H142.6 Q146.6,564.0 146.6,568.0 V570.0 Q146.6,574.0 142.6,574.0 H0.0 Z" fill="#e87ba4"/><line x1="140.5" y1="569.0" x2="156.9" y2="569.0" stroke="#1e1b15" stroke-opacity="0.55" stroke-width="1.5"/><text x="162.9" y="573.0" font-family="ui-monospace, SFMono-Regular, Consolas, 'Liberation Mono', monospace" font-size="11" fill="#6e6654" font-weight="400">2,68 мс</text><path d="M0.0,578.0 H202.8 Q206.8,578.0 206.8,582.0 V584.0 Q206.8,588.0 202.8,588.0 H0.0 Z" fill="#4a3aa7"/><line x1="195.5" y1="583.0" x2="212.0" y2="583.0" stroke="#1e1b15" stroke-opacity="0.55" stroke-width="1.5"/><text x="218.0" y="587.0" font-family="ui-monospace, SFMono-Regular, Consolas, 'Liberation Mono', monospace" font-size="11" fill="#6e6654" font-weight="400">3,78 мс</text><path d="M0.0,592.0 H148.9 Q152.9,592.0 152.9,596.0 V598.0 Q152.9,602.0 148.9,602.0 H0.0 Z" fill="#008300"/><line x1="152.3" y1="597.0" x2="160.7" y2="597.0" stroke="#1e1b15" stroke-opacity="0.55" stroke-width="1.5"/><text x="166.7" y="601.0" font-family="ui-monospace, SFMono-Regular, Consolas, 'Liberation Mono', monospace" font-size="11" fill="#6e6654" font-weight="400">2,79 мс</text><text x="398.0" y="498.0" font-family="system-ui, -apple-system, 'Segoe UI', Roboto, sans-serif" font-size="13.5" fill="#1e1b15" font-weight="600">exists()</text><path d="M398.0,508.0 H458.3 Q462.3,508.0 462.3,512.0 V514.0 Q462.3,518.0 458.3,518.0 H398.0 Z" fill="#eb6834"/><line x1="461.8" y1="513.0" x2="465.0" y2="513.0" stroke="#1e1b15" stroke-opacity="0.55" stroke-width="1.5"/><text x="471.0" y="517.0" font-family="ui-monospace, SFMono-Regular, Consolas, 'Liberation Mono', monospace" font-size="11" fill="#6e6654" font-weight="400">0,55 мс</text><path d="M398.0,522.0 H457.8 Q461.8,522.0 461.8,526.0 V528.0 Q461.8,532.0 457.8,532.0 H398.0 Z" fill="#2a78d6"/><line x1="461.3" y1="527.0" x2="467.1" y2="527.0" stroke="#1e1b15" stroke-opacity="0.55" stroke-width="1.5"/><text x="473.1" y="531.0" font-family="ui-monospace, SFMono-Regular, Consolas, 'Liberation Mono', monospace" font-size="11" fill="#1e1b15" font-weight="700">0,55 мс</text><path d="M398.0,536.0 H662.2 Q666.2,536.0 666.2,540.0 V542.0 Q666.2,546.0 662.2,546.0 H398.0 Z" fill="#1baf7a"/><line x1="660.8" y1="541.0" x2="672.0" y2="541.0" stroke="#1e1b15" stroke-opacity="0.55" stroke-width="1.5"/><text x="678.0" y="545.0" font-family="ui-monospace, SFMono-Regular, Consolas, 'Liberation Mono', monospace" font-size="11" fill="#6e6654" font-weight="400">2,31 мс</text><path d="M398.0,550.0 H576.9 Q580.9,550.0 580.9,554.0 V556.0 Q580.9,560.0 576.9,560.0 H398.0 Z" fill="#eda100"/><line x1="573.8" y1="555.0" x2="581.7" y2="555.0" stroke="#1e1b15" stroke-opacity="0.55" stroke-width="1.5"/><text x="587.7" y="559.0" font-family="ui-monospace, SFMono-Regular, Consolas, 'Liberation Mono', monospace" font-size="11" fill="#6e6654" font-weight="400">1,58 мс</text><path d="M398.0,564.0 H501.3 Q505.3,564.0 505.3,568.0 V570.0 Q505.3,574.0 501.3,574.0 H398.0 Z" fill="#e87ba4"/><line x1="502.7" y1="569.0" x2="516.9" y2="569.0" stroke="#1e1b15" stroke-opacity="0.55" stroke-width="1.5"/><text x="522.9" y="573.0" font-family="ui-monospace, SFMono-Regular, Consolas, 'Liberation Mono', monospace" font-size="11" fill="#6e6654" font-weight="400">0,92 мс</text><path d="M398.0,578.0 H503.8 Q507.8,578.0 507.8,582.0 V584.0 Q507.8,588.0 503.8,588.0 H398.0 Z" fill="#4a3aa7"/><line x1="495.9" y1="583.0" x2="517.6" y2="583.0" stroke="#1e1b15" stroke-opacity="0.55" stroke-width="1.5"/><text x="523.6" y="587.0" font-family="ui-monospace, SFMono-Regular, Consolas, 'Liberation Mono', monospace" font-size="11" fill="#6e6654" font-weight="400">0,95 мс</text><path d="M398.0,592.0 H488.7 Q492.7,592.0 492.7,596.0 V598.0 Q492.7,602.0 488.7,602.0 H398.0 Z" fill="#008300"/><line x1="489.9" y1="597.0" x2="494.5" y2="597.0" stroke="#1e1b15" stroke-opacity="0.55" stroke-width="1.5"/><text x="500.5" y="601.0" font-family="ui-monospace, SFMono-Regular, Consolas, 'Liberation Mono', monospace" font-size="11" fill="#6e6654" font-weight="400">0,82 мс</text><text x="0.0" y="640.0" font-family="system-ui, -apple-system, 'Segoe UI', Roboto, sans-serif" font-size="13.5" fill="#1e1b15" font-weight="600">values_list(flat=True)</text><path d="M0.0,650.0 H76.5 Q80.5,650.0 80.5,654.0 V656.0 Q80.5,660.0 76.5,660.0 H0.0 Z" fill="#eb6834"/><line x1="79.8" y1="655.0" x2="82.1" y2="655.0" stroke="#1e1b15" stroke-opacity="0.55" stroke-width="1.5"/><text x="88.1" y="659.0" font-family="ui-monospace, SFMono-Regular, Consolas, 'Liberation Mono', monospace" font-size="11" fill="#1e1b15" font-weight="700">1,13 мс</text><path d="M0.0,664.0 H82.9 Q86.9,664.0 86.9,668.0 V670.0 Q86.9,674.0 82.9,674.0 H0.0 Z" fill="#2a78d6"/><line x1="77.8" y1="669.0" x2="92.4" y2="669.0" stroke="#1e1b15" stroke-opacity="0.55" stroke-width="1.5"/><text x="98.4" y="673.0" font-family="ui-monospace, SFMono-Regular, Consolas, 'Liberation Mono', monospace" font-size="11" fill="#6e6654" font-weight="400">1,22 мс</text><path d="M0.0,678.0 H266.5 Q270.5,678.0 270.5,682.0 V684.0 Q270.5,688.0 266.5,688.0 H0.0 Z" fill="#1baf7a"/><line x1="261.9" y1="683.0" x2="274.0" y2="683.0" stroke="#1e1b15" stroke-opacity="0.55" stroke-width="1.5"/><text x="280.0" y="687.0" font-family="ui-monospace, SFMono-Regular, Consolas, 'Liberation Mono', monospace" font-size="11" fill="#6e6654" font-weight="400">3,81 мс</text><path d="M0.0,692.0 H209.8 Q213.8,692.0 213.8,696.0 V698.0 Q213.8,702.0 209.8,702.0 H0.0 Z" fill="#eda100"/><line x1="207.4" y1="697.0" x2="225.2" y2="697.0" stroke="#1e1b15" stroke-opacity="0.55" stroke-width="1.5"/><text x="231.2" y="701.0" font-family="ui-monospace, SFMono-Regular, Consolas, 'Liberation Mono', monospace" font-size="11" fill="#6e6654" font-weight="400">3,01 мс</text><path d="M0.0,706.0 H118.0 Q122.0,706.0 122.0,710.0 V712.0 Q122.0,716.0 118.0,716.0 H0.0 Z" fill="#e87ba4"/><line x1="112.0" y1="711.0" x2="126.1" y2="711.0" stroke="#1e1b15" stroke-opacity="0.55" stroke-width="1.5"/><text x="132.1" y="715.0" font-family="ui-monospace, SFMono-Regular, Consolas, 'Liberation Mono', monospace" font-size="11" fill="#6e6654" font-weight="400">1,72 мс</text><path d="M0.0,720.0 H161.6 Q165.6,720.0 165.6,724.0 V726.0 Q165.6,730.0 161.6,730.0 H0.0 Z" fill="#4a3aa7"/><line x1="163.3" y1="725.0" x2="180.5" y2="725.0" stroke="#1e1b15" stroke-opacity="0.55" stroke-width="1.5"/><text x="186.5" y="729.0" font-family="ui-monospace, SFMono-Regular, Consolas, 'Liberation Mono', monospace" font-size="11" fill="#6e6654" font-weight="400">2,33 мс</text><path d="M0.0,734.0 H103.0 Q107.0,734.0 107.0,738.0 V740.0 Q107.0,744.0 103.0,744.0 H0.0 Z" fill="#008300"/><line x1="102.8" y1="739.0" x2="107.0" y2="739.0" stroke="#1e1b15" stroke-opacity="0.55" stroke-width="1.5"/><text x="113.0" y="743.0" font-family="ui-monospace, SFMono-Regular, Consolas, 'Liberation Mono', monospace" font-size="11" fill="#6e6654" font-weight="400">1,51 мс</text><text x="398.0" y="640.0" font-family="system-ui, -apple-system, 'Segoe UI', Roboto, sans-serif" font-size="13.5" fill="#1e1b15" font-weight="600">distinct() значений поля</text><path d="M398.0,650.0 H474.1 Q478.1,650.0 478.1,654.0 V656.0 Q478.1,660.0 474.1,660.0 H398.0 Z" fill="#eb6834"/><line x1="476.0" y1="655.0" x2="482.1" y2="655.0" stroke="#1e1b15" stroke-opacity="0.55" stroke-width="1.5"/><text x="488.1" y="659.0" font-family="ui-monospace, SFMono-Regular, Consolas, 'Liberation Mono', monospace" font-size="11" fill="#1e1b15" font-weight="700">0,93 мс</text><path d="M398.0,664.0 H481.7 Q485.7,664.0 485.7,668.0 V670.0 Q485.7,674.0 481.7,674.0 H398.0 Z" fill="#2a78d6"/><line x1="479.9" y1="669.0" x2="486.6" y2="669.0" stroke="#1e1b15" stroke-opacity="0.55" stroke-width="1.5"/><text x="492.6" y="673.0" font-family="ui-monospace, SFMono-Regular, Consolas, 'Liberation Mono', monospace" font-size="11" fill="#6e6654" font-weight="400">1,01 мс</text><path d="M398.0,678.0 H653.4 Q657.4,678.0 657.4,682.0 V684.0 Q657.4,688.0 653.4,688.0 H398.0 Z" fill="#1baf7a"/><line x1="648.2" y1="683.0" x2="672.0" y2="683.0" stroke="#1e1b15" stroke-opacity="0.55" stroke-width="1.5"/><text x="678.0" y="687.0" font-family="ui-monospace, SFMono-Regular, Consolas, 'Liberation Mono', monospace" font-size="11" fill="#6e6654" font-weight="400">3,00 мс</text><path d="M398.0,692.0 H595.7 Q599.7,692.0 599.7,696.0 V698.0 Q599.7,702.0 595.7,702.0 H398.0 Z" fill="#eda100"/><line x1="575.8" y1="697.0" x2="601.3" y2="697.0" stroke="#1e1b15" stroke-opacity="0.55" stroke-width="1.5"/><text x="607.3" y="701.0" font-family="ui-monospace, SFMono-Regular, Consolas, 'Liberation Mono', monospace" font-size="11" fill="#6e6654" font-weight="400">2,33 мс</text><path d="M398.0,706.0 H511.0 Q515.0,706.0 515.0,710.0 V712.0 Q515.0,716.0 511.0,716.0 H398.0 Z" fill="#e87ba4"/><line x1="514.9" y1="711.0" x2="519.6" y2="711.0" stroke="#1e1b15" stroke-opacity="0.55" stroke-width="1.5"/><text x="525.6" y="715.0" font-family="ui-monospace, SFMono-Regular, Consolas, 'Liberation Mono', monospace" font-size="11" fill="#6e6654" font-weight="400">1,35 мс</text><path d="M398.0,720.0 H585.3 Q589.3,720.0 589.3,724.0 V726.0 Q589.3,730.0 585.3,730.0 H398.0 Z" fill="#4a3aa7"/><line x1="571.6" y1="725.0" x2="598.3" y2="725.0" stroke="#1e1b15" stroke-opacity="0.55" stroke-width="1.5"/><text x="604.3" y="729.0" font-family="ui-monospace, SFMono-Regular, Consolas, 'Liberation Mono', monospace" font-size="11" fill="#6e6654" font-weight="400">2,21 мс</text><path d="M398.0,734.0 H494.0 Q498.0,734.0 498.0,738.0 V740.0 Q498.0,744.0 494.0,744.0 H398.0 Z" fill="#008300"/><line x1="495.2" y1="739.0" x2="499.5" y2="739.0" stroke="#1e1b15" stroke-opacity="0.55" stroke-width="1.5"/><text x="505.5" y="743.0" font-family="ui-monospace, SFMono-Regular, Consolas, 'Liberation Mono', monospace" font-size="11" fill="#6e6654" font-weight="400">1,16 мс</text><text x="0.0" y="782.0" font-family="system-ui, -apple-system, 'Segoe UI', Roboto, sans-serif" font-size="13.5" fill="#1e1b15" font-weight="600">only(&quot;id&quot;, &quot;name&quot;)</text><path d="M0.0,792.0 H55.3 Q59.3,792.0 59.3,796.0 V798.0 Q59.3,802.0 55.3,802.0 H0.0 Z" fill="#eb6834"/><line x1="56.2" y1="797.0" x2="64.1" y2="797.0" stroke="#1e1b15" stroke-opacity="0.55" stroke-width="1.5"/><text x="70.1" y="801.0" font-family="ui-monospace, SFMono-Regular, Consolas, 'Liberation Mono', monospace" font-size="11" fill="#1e1b15" font-weight="700">1,26 мс</text><path d="M0.0,806.0 H77.4 Q81.4,806.0 81.4,810.0 V812.0 Q81.4,816.0 77.4,816.0 H0.0 Z" fill="#2a78d6"/><line x1="61.3" y1="811.0" x2="85.2" y2="811.0" stroke="#1e1b15" stroke-opacity="0.55" stroke-width="1.5"/><text x="91.2" y="815.0" font-family="ui-monospace, SFMono-Regular, Consolas, 'Liberation Mono', monospace" font-size="11" fill="#6e6654" font-weight="400">1,74 мс</text><path d="M0.0,820.0 H251.5 Q255.5,820.0 255.5,824.0 V826.0 Q255.5,830.0 251.5,830.0 H0.0 Z" fill="#1baf7a"/><line x1="237.6" y1="825.0" x2="274.0" y2="825.0" stroke="#1e1b15" stroke-opacity="0.55" stroke-width="1.5"/><text x="280.0" y="829.0" font-family="ui-monospace, SFMono-Regular, Consolas, 'Liberation Mono', monospace" font-size="11" fill="#6e6654" font-weight="400">5,45 мс</text><path d="M0.0,834.0 H221.7 Q225.7,834.0 225.7,838.0 V840.0 Q225.7,844.0 221.7,844.0 H0.0 Z" fill="#eda100"/><line x1="220.4" y1="839.0" x2="241.5" y2="839.0" stroke="#1e1b15" stroke-opacity="0.55" stroke-width="1.5"/><text x="247.5" y="843.0" font-family="ui-monospace, SFMono-Regular, Consolas, 'Liberation Mono', monospace" font-size="11" fill="#6e6654" font-weight="400">4,81 мс</text><path d="M0.0,848.0 H204.2 Q208.2,848.0 208.2,852.0 V854.0 Q208.2,858.0 204.2,858.0 H0.0 Z" fill="#e87ba4"/><line x1="206.2" y1="853.0" x2="214.6" y2="853.0" stroke="#1e1b15" stroke-opacity="0.55" stroke-width="1.5"/><text x="220.6" y="857.0" font-family="ui-monospace, SFMono-Regular, Consolas, 'Liberation Mono', monospace" font-size="11" fill="#6e6654" font-weight="400">4,44 мс</text><path d="M0.0,862.0 H123.1 Q127.1,862.0 127.1,866.0 V868.0 Q127.1,872.0 123.1,872.0 H0.0 Z" fill="#4a3aa7"/><line x1="119.7" y1="867.0" x2="131.6" y2="867.0" stroke="#1e1b15" stroke-opacity="0.55" stroke-width="1.5"/><text x="137.6" y="871.0" font-family="ui-monospace, SFMono-Regular, Consolas, 'Liberation Mono', monospace" font-size="11" fill="#6e6654" font-weight="400">2,71 мс</text><path d="M0.0,876.0 H156.0 Q160.0,876.0 160.0,880.0 V882.0 Q160.0,886.0 156.0,886.0 H0.0 Z" fill="#008300"/><line x1="156.5" y1="881.0" x2="170.2" y2="881.0" stroke="#1e1b15" stroke-opacity="0.55" stroke-width="1.5"/><text x="176.2" y="885.0" font-family="ui-monospace, SFMono-Regular, Consolas, 'Liberation Mono', monospace" font-size="11" fill="#6e6654" font-weight="400">3,41 мс</text><text x="398.0" y="782.0" font-family="system-ui, -apple-system, 'Segoe UI', Roboto, sans-serif" font-size="13.5" fill="#1e1b15" font-weight="600">OR + JOIN + distinct</text><path d="M398.0,792.0 H512.2 Q516.2,792.0 516.2,796.0 V798.0 Q516.2,802.0 512.2,802.0 H398.0 Z" fill="#eb6834"/><line x1="513.8" y1="797.0" x2="521.6" y2="797.0" stroke="#1e1b15" stroke-opacity="0.55" stroke-width="1.5"/><text x="527.6" y="801.0" font-family="ui-monospace, SFMono-Regular, Consolas, 'Liberation Mono', monospace" font-size="11" fill="#1e1b15" font-weight="700">2,44 мс</text><path d="M398.0,806.0 H524.1 Q528.1,806.0 528.1,810.0 V812.0 Q528.1,816.0 524.1,816.0 H398.0 Z" fill="#2a78d6"/><line x1="518.0" y1="811.0" x2="544.4" y2="811.0" stroke="#1e1b15" stroke-opacity="0.55" stroke-width="1.5"/><text x="550.4" y="815.0" font-family="ui-monospace, SFMono-Regular, Consolas, 'Liberation Mono', monospace" font-size="11" fill="#6e6654" font-weight="400">2,69 мс</text><path d="M398.0,820.0 H665.2 Q669.2,820.0 669.2,824.0 V826.0 Q669.2,830.0 665.2,830.0 H398.0 Z" fill="#1baf7a"/><line x1="654.8" y1="825.0" x2="672.0" y2="825.0" stroke="#1e1b15" stroke-opacity="0.55" stroke-width="1.5"/><text x="678.0" y="829.0" font-family="ui-monospace, SFMono-Regular, Consolas, 'Liberation Mono', monospace" font-size="11" fill="#6e6654" font-weight="400">5,60 мс</text><path d="M398.0,834.0 H628.2 Q632.2,834.0 632.2,838.0 V840.0 Q632.2,844.0 628.2,844.0 H398.0 Z" fill="#eda100"/><line x1="631.2" y1="839.0" x2="634.8" y2="839.0" stroke="#1e1b15" stroke-opacity="0.55" stroke-width="1.5"/><text x="640.8" y="843.0" font-family="ui-monospace, SFMono-Regular, Consolas, 'Liberation Mono', monospace" font-size="11" fill="#6e6654" font-weight="400">4,84 мс</text><path d="M398.0,848.0 H562.6 Q566.6,848.0 566.6,852.0 V854.0 Q566.6,858.0 562.6,858.0 H398.0 Z" fill="#e87ba4"/><line x1="560.3" y1="853.0" x2="583.1" y2="853.0" stroke="#1e1b15" stroke-opacity="0.55" stroke-width="1.5"/><text x="589.1" y="857.0" font-family="ui-monospace, SFMono-Regular, Consolas, 'Liberation Mono', monospace" font-size="11" fill="#6e6654" font-weight="400">3,48 мс</text><path d="M398.0,862.0 H608.6 Q612.6,862.0 612.6,866.0 V868.0 Q612.6,872.0 608.6,872.0 H398.0 Z" fill="#4a3aa7"/><line x1="605.9" y1="867.0" x2="614.3" y2="867.0" stroke="#1e1b15" stroke-opacity="0.55" stroke-width="1.5"/><text x="620.3" y="871.0" font-family="ui-monospace, SFMono-Regular, Consolas, 'Liberation Mono', monospace" font-size="11" fill="#6e6654" font-weight="400">4,43 мс</text><path d="M398.0,876.0 H580.7 Q584.7,876.0 584.7,880.0 V882.0 Q584.7,886.0 580.7,886.0 H398.0 Z" fill="#008300"/><line x1="581.9" y1="881.0" x2="589.8" y2="881.0" stroke="#1e1b15" stroke-opacity="0.55" stroke-width="1.5"/><text x="595.8" y="885.0" font-family="ui-monospace, SFMono-Regular, Consolas, 'Liberation Mono', monospace" font-size="11" fill="#6e6654" font-weight="400">3,86 мс</text><text x="0.0" y="924.0" font-family="system-ui, -apple-system, 'Segoe UI', Roboto, sans-serif" font-size="13.5" fill="#1e1b15" font-weight="600">id IN (200 значений)</text><path d="M0.0,934.0 H89.0 Q93.0,934.0 93.0,938.0 V940.0 Q93.0,944.0 89.0,944.0 H0.0 Z" fill="#eb6834"/><line x1="89.5" y1="939.0" x2="99.0" y2="939.0" stroke="#1e1b15" stroke-opacity="0.55" stroke-width="1.5"/><text x="105.0" y="943.0" font-family="ui-monospace, SFMono-Regular, Consolas, 'Liberation Mono', monospace" font-size="11" fill="#1e1b15" font-weight="700">1,71 мс</text><path d="M0.0,948.0 H94.7 Q98.7,948.0 98.7,952.0 V954.0 Q98.7,958.0 94.7,958.0 H0.0 Z" fill="#2a78d6"/><line x1="96.6" y1="953.0" x2="99.7" y2="953.0" stroke="#1e1b15" stroke-opacity="0.55" stroke-width="1.5"/><text x="105.7" y="957.0" font-family="ui-monospace, SFMono-Regular, Consolas, 'Liberation Mono', monospace" font-size="11" fill="#6e6654" font-weight="400">1,82 мс</text><path d="M0.0,962.0 H268.4 Q272.4,962.0 272.4,966.0 V968.0 Q272.4,972.0 268.4,972.0 H0.0 Z" fill="#1baf7a"/><line x1="264.8" y1="967.0" x2="274.0" y2="967.0" stroke="#1e1b15" stroke-opacity="0.55" stroke-width="1.5"/><text x="280.0" y="971.0" font-family="ui-monospace, SFMono-Regular, Consolas, 'Liberation Mono', monospace" font-size="11" fill="#6e6654" font-weight="400">5,02 мс</text><path d="M0.0,976.0 H223.4 Q227.4,976.0 227.4,980.0 V982.0 Q227.4,986.0 223.4,986.0 H0.0 Z" fill="#eda100"/><line x1="227.4" y1="981.0" x2="239.0" y2="981.0" stroke="#1e1b15" stroke-opacity="0.55" stroke-width="1.5"/><text x="245.0" y="985.0" font-family="ui-monospace, SFMono-Regular, Consolas, 'Liberation Mono', monospace" font-size="11" fill="#6e6654" font-weight="400">4,19 мс</text><path d="M0.0,990.0 H173.2 Q177.2,990.0 177.2,994.0 V996.0 Q177.2,1000.0 173.2,1000.0 H0.0 Z" fill="#e87ba4"/><line x1="173.7" y1="995.0" x2="180.4" y2="995.0" stroke="#1e1b15" stroke-opacity="0.55" stroke-width="1.5"/><text x="186.4" y="999.0" font-family="ui-monospace, SFMono-Regular, Consolas, 'Liberation Mono', monospace" font-size="11" fill="#6e6654" font-weight="400">3,26 мс</text><path d="M0.0,1004.0 H178.0 Q182.0,1004.0 182.0,1008.0 V1010.0 Q182.0,1014.0 178.0,1014.0 H0.0 Z" fill="#4a3aa7"/><line x1="168.2" y1="1009.0" x2="188.4" y2="1009.0" stroke="#1e1b15" stroke-opacity="0.55" stroke-width="1.5"/><text x="194.4" y="1013.0" font-family="ui-monospace, SFMono-Regular, Consolas, 'Liberation Mono', monospace" font-size="11" fill="#6e6654" font-weight="400">3,35 мс</text><path d="M0.0,1018.0 H200.5 Q204.5,1018.0 204.5,1022.0 V1024.0 Q204.5,1028.0 200.5,1028.0 H0.0 Z" fill="#008300"/><line x1="191.3" y1="1023.0" x2="206.5" y2="1023.0" stroke="#1e1b15" stroke-opacity="0.55" stroke-width="1.5"/><text x="212.5" y="1027.0" font-family="ui-monospace, SFMono-Regular, Consolas, 'Liberation Mono', monospace" font-size="11" fill="#6e6654" font-weight="400">3,77 мс</text><text x="398.0" y="924.0" font-family="system-ui, -apple-system, 'Segoe UI', Roboto, sans-serif" font-size="13.5" fill="#1e1b15" font-weight="600">Обход всех строк порциями</text><path d="M398.0,934.0 H504.3 Q508.3,934.0 508.3,938.0 V940.0 Q508.3,944.0 504.3,944.0 H398.0 Z" fill="#eb6834"/><line x1="503.2" y1="939.0" x2="533.3" y2="939.0" stroke="#1e1b15" stroke-opacity="0.55" stroke-width="1.5"/><text x="539.3" y="943.0" font-family="ui-monospace, SFMono-Regular, Consolas, 'Liberation Mono', monospace" font-size="11" fill="#6e6654" font-weight="400">9,74 мс</text><path d="M398.0,948.0 H501.5 Q505.5,948.0 505.5,952.0 V954.0 Q505.5,958.0 501.5,958.0 H398.0 Z" fill="#2a78d6"/><line x1="504.5" y1="953.0" x2="512.5" y2="953.0" stroke="#1e1b15" stroke-opacity="0.55" stroke-width="1.5"/><text x="518.5" y="957.0" font-family="ui-monospace, SFMono-Regular, Consolas, 'Liberation Mono', monospace" font-size="11" fill="#1e1b15" font-weight="700">9,49 мс</text><path d="M398.0,962.0 H642.0 Q646.0,962.0 646.0,966.0 V968.0 Q646.0,972.0 642.0,972.0 H398.0 Z" fill="#1baf7a"/><line x1="636.6" y1="967.0" x2="655.1" y2="967.0" stroke="#1e1b15" stroke-opacity="0.55" stroke-width="1.5"/><text x="661.1" y="971.0" font-family="ui-monospace, SFMono-Regular, Consolas, 'Liberation Mono', monospace" font-size="11" fill="#6e6654" font-weight="400">21,9 мс</text><path d="M398.0,976.0 H647.8 Q651.8,976.0 651.8,980.0 V982.0 Q651.8,986.0 647.8,986.0 H398.0 Z" fill="#eda100"/><line x1="640.1" y1="981.0" x2="672.0" y2="981.0" stroke="#1e1b15" stroke-opacity="0.55" stroke-width="1.5"/><text x="678.0" y="985.0" font-family="ui-monospace, SFMono-Regular, Consolas, 'Liberation Mono', monospace" font-size="11" fill="#6e6654" font-weight="400">22,4 мс</text><text x="398.0" y="999.0" font-family="system-ui, -apple-system, 'Segoe UI', Roboto, sans-serif" font-size="11" fill="#6e6654" font-style="italic">нет в этой ORM</text><text x="398.0" y="1013.0" font-family="system-ui, -apple-system, 'Segoe UI', Roboto, sans-serif" font-size="11" fill="#6e6654" font-style="italic">нет в этой ORM</text><path d="M398.0,1018.0 H580.1 Q584.1,1018.0 584.1,1022.0 V1024.0 Q584.1,1028.0 580.1,1028.0 H398.0 Z" fill="#008300"/><line x1="578.2" y1="1023.0" x2="595.1" y2="1023.0" stroke="#1e1b15" stroke-opacity="0.55" stroke-width="1.5"/><text x="601.1" y="1027.0" font-family="ui-monospace, SFMono-Regular, Consolas, 'Liberation Mono', monospace" font-size="11" fill="#6e6654" font-weight="400">16,4 мс</text><text x="0.0" y="1066.0" font-family="system-ui, -apple-system, 'Segoe UI', Roboto, sans-serif" font-size="13.5" fill="#1e1b15" font-weight="600">Чтение JSON-поля</text><path d="M0.0,1076.0 H88.1 Q92.1,1076.0 92.1,1080.0 V1082.0 Q92.1,1086.0 88.1,1086.0 H0.0 Z" fill="#eb6834"/><line x1="88.2" y1="1081.0" x2="103.0" y2="1081.0" stroke="#1e1b15" stroke-opacity="0.55" stroke-width="1.5"/><text x="109.0" y="1085.0" font-family="ui-monospace, SFMono-Regular, Consolas, 'Liberation Mono', monospace" font-size="11" fill="#1e1b15" font-weight="700">6,78 мс</text><path d="M0.0,1090.0 H91.0 Q95.0,1090.0 95.0,1094.0 V1096.0 Q95.0,1100.0 91.0,1100.0 H0.0 Z" fill="#2a78d6"/><line x1="92.5" y1="1095.0" x2="106.7" y2="1095.0" stroke="#1e1b15" stroke-opacity="0.55" stroke-width="1.5"/><text x="112.7" y="1099.0" font-family="ui-monospace, SFMono-Regular, Consolas, 'Liberation Mono', monospace" font-size="11" fill="#6e6654" font-weight="400">7,00 мс</text><path d="M0.0,1104.0 H153.6 Q157.6,1104.0 157.6,1108.0 V1110.0 Q157.6,1114.0 153.6,1114.0 H0.0 Z" fill="#1baf7a"/><line x1="155.8" y1="1109.0" x2="167.7" y2="1109.0" stroke="#1e1b15" stroke-opacity="0.55" stroke-width="1.5"/><text x="173.7" y="1113.0" font-family="ui-monospace, SFMono-Regular, Consolas, 'Liberation Mono', monospace" font-size="11" fill="#6e6654" font-weight="400">11,6 мс</text><path d="M0.0,1118.0 H134.1 Q138.1,1118.0 138.1,1122.0 V1124.0 Q138.1,1128.0 134.1,1128.0 H0.0 Z" fill="#eda100"/><line x1="130.0" y1="1123.0" x2="142.9" y2="1123.0" stroke="#1e1b15" stroke-opacity="0.55" stroke-width="1.5"/><text x="148.9" y="1127.0" font-family="ui-monospace, SFMono-Regular, Consolas, 'Liberation Mono', monospace" font-size="11" fill="#6e6654" font-weight="400">10,2 мс</text><path d="M0.0,1132.0 H142.3 Q146.3,1132.0 146.3,1136.0 V1138.0 Q146.3,1142.0 142.3,1142.0 H0.0 Z" fill="#e87ba4"/><line x1="143.9" y1="1137.0" x2="161.1" y2="1137.0" stroke="#1e1b15" stroke-opacity="0.55" stroke-width="1.5"/><text x="167.1" y="1141.0" font-family="ui-monospace, SFMono-Regular, Consolas, 'Liberation Mono', monospace" font-size="11" fill="#6e6654" font-weight="400">10,8 мс</text><path d="M0.0,1146.0 H266.3 Q270.3,1146.0 270.3,1150.0 V1152.0 Q270.3,1156.0 266.3,1156.0 H0.0 Z" fill="#4a3aa7"/><line x1="259.7" y1="1151.0" x2="274.0" y2="1151.0" stroke="#1e1b15" stroke-opacity="0.55" stroke-width="1.5"/><text x="280.0" y="1155.0" font-family="ui-monospace, SFMono-Regular, Consolas, 'Liberation Mono', monospace" font-size="11" fill="#6e6654" font-weight="400">19,9 мс</text><path d="M0.0,1160.0 H167.3 Q171.3,1160.0 171.3,1164.0 V1166.0 Q171.3,1170.0 167.3,1170.0 H0.0 Z" fill="#008300"/><line x1="159.5" y1="1165.0" x2="173.2" y2="1165.0" stroke="#1e1b15" stroke-opacity="0.55" stroke-width="1.5"/><text x="179.2" y="1169.0" font-family="ui-monospace, SFMono-Regular, Consolas, 'Liberation Mono', monospace" font-size="11" fill="#6e6654" font-weight="400">12,6 мс</text></g></svg>
