<svg xmlns="http://www.w3.org/2000/svg" viewBox="0 0 800 808" width="800" height="808" role="img"><title>Чтение</title><rect width="800" height="808" rx="10" fill="#faf9f4"/><g transform="translate(20,20)"><rect x="0.0" y="3.0" width="12" height="12" rx="3" fill="#eb6834"/><text x="18.0" y="13.5" font-family="system-ui, -apple-system, 'Segoe UI', Roboto, sans-serif" font-size="13" fill="#1e1b15">hare (Rust driver)</text><rect x="169.6" y="3.0" width="12" height="12" rx="3" fill="#2a78d6"/><text x="187.6" y="13.5" font-family="system-ui, -apple-system, 'Segoe UI', Roboto, sans-serif" font-size="13" fill="#1e1b15">hare (asyncpg)</text><rect x="310.4" y="3.0" width="12" height="12" rx="3" fill="#1baf7a"/><text x="328.4" y="13.5" font-family="system-ui, -apple-system, 'Segoe UI', Roboto, sans-serif" font-size="13" fill="#1e1b15">SQLAlchemy</text><rect x="422.4" y="3.0" width="12" height="12" rx="3" fill="#eda100"/><text x="440.4" y="13.5" font-family="system-ui, -apple-system, 'Segoe UI', Roboto, sans-serif" font-size="13" fill="#1e1b15">SQLAlchemy (autocommit)</text><rect x="628.0" y="3.0" width="12" height="12" rx="3" fill="#e87ba4"/><text x="646.0" y="13.5" font-family="system-ui, -apple-system, 'Segoe UI', Roboto, sans-serif" font-size="13" fill="#1e1b15">tortoise-orm</text><rect x="0.0" y="25.0" width="12" height="12" rx="3" fill="#4a3aa7"/><text x="18.0" y="35.5" font-family="system-ui, -apple-system, 'Segoe UI', Roboto, sans-serif" font-size="13" fill="#1e1b15">yara-orm</text><rect x="97.6" y="25.0" width="12" height="12" rx="3" fill="#008300"/><text x="115.6" y="35.5" font-family="system-ui, -apple-system, 'Segoe UI', Roboto, sans-serif" font-size="13" fill="#1e1b15">Django</text><text x="0.0" y="72.0" font-family="system-ui, -apple-system, 'Segoe UI', Roboto, sans-serif" font-size="13.5" fill="#1e1b15" font-weight="600">Все 1000 строк</text><path d="M0.0,82.0 H127.2 Q131.2,82.0 131.2,86.0 V88.0 Q131.2,92.0 127.2,92.0 H0.0 Z" fill="#eb6834"/><line x1="128.4" y1="87.0" x2="148.7" y2="87.0" stroke="#1e1b15" stroke-opacity="0.55" stroke-width="1.5"/><text x="154.7" y="91.0" font-family="ui-monospace, SFMono-Regular, Consolas, 'Liberation Mono', monospace" font-size="11" fill="#6e6654" font-weight="400">13,7 мс</text><path d="M0.0,96.0 H114.3 Q118.3,96.0 118.3,100.0 V102.0 Q118.3,106.0 114.3,106.0 H0.0 Z" fill="#2a78d6"/><line x1="117.4" y1="101.0" x2="128.4" y2="101.0" stroke="#1e1b15" stroke-opacity="0.55" stroke-width="1.5"/><text x="134.4" y="105.0" font-family="ui-monospace, SFMono-Regular, Consolas, 'Liberation Mono', monospace" font-size="11" fill="#1e1b15" font-weight="700">12,3 мс</text><path d="M0.0,110.0 H193.8 Q197.8,110.0 197.8,114.0 V116.0 Q197.8,120.0 193.8,120.0 H0.0 Z" fill="#1baf7a"/><line x1="185.5" y1="115.0" x2="198.5" y2="115.0" stroke="#1e1b15" stroke-opacity="0.55" stroke-width="1.5"/><text x="204.5" y="119.0" font-family="ui-monospace, SFMono-Regular, Consolas, 'Liberation Mono', monospace" font-size="11" fill="#6e6654" font-weight="400">20,6 мс</text><path d="M0.0,124.0 H197.8 Q201.8,124.0 201.8,128.0 V130.0 Q201.8,134.0 197.8,134.0 H0.0 Z" fill="#eda100"/><line x1="181.0" y1="129.0" x2="214.5" y2="129.0" stroke="#1e1b15" stroke-opacity="0.55" stroke-width="1.5"/><text x="220.5" y="133.0" font-family="ui-monospace, SFMono-Regular, Consolas, 'Liberation Mono', monospace" font-size="11" fill="#6e6654" font-weight="400">21,0 мс</text><path d="M0.0,138.0 H193.8 Q197.8,138.0 197.8,142.0 V144.0 Q197.8,148.0 193.8,148.0 H0.0 Z" fill="#e87ba4"/><line x1="187.7" y1="143.0" x2="230.3" y2="143.0" stroke="#1e1b15" stroke-opacity="0.55" stroke-width="1.5"/><text x="236.3" y="147.0" font-family="ui-monospace, SFMono-Regular, Consolas, 'Liberation Mono', monospace" font-size="11" fill="#6e6654" font-weight="400">20,6 мс</text><path d="M0.0,152.0 H264.6 Q268.6,152.0 268.6,156.0 V158.0 Q268.6,162.0 264.6,162.0 H0.0 Z" fill="#4a3aa7"/><line x1="266.9" y1="157.0" x2="274.0" y2="157.0" stroke="#1e1b15" stroke-opacity="0.55" stroke-width="1.5"/><text x="280.0" y="161.0" font-family="ui-monospace, SFMono-Regular, Consolas, 'Liberation Mono', monospace" font-size="11" fill="#6e6654" font-weight="400">28,0 мс</text><path d="M0.0,166.0 H231.4 Q235.4,166.0 235.4,170.0 V172.0 Q235.4,176.0 231.4,176.0 H0.0 Z" fill="#008300"/><line x1="208.2" y1="171.0" x2="253.9" y2="171.0" stroke="#1e1b15" stroke-opacity="0.55" stroke-width="1.5"/><text x="259.9" y="175.0" font-family="ui-monospace, SFMono-Regular, Consolas, 'Liberation Mono', monospace" font-size="11" fill="#6e6654" font-weight="400">24,5 мс</text><text x="398.0" y="72.0" font-family="system-ui, -apple-system, 'Segoe UI', Roboto, sans-serif" font-size="13.5" fill="#1e1b15" font-weight="600">200 × get() по ключу</text><path d="M398.0,82.0 H529.0 Q533.0,82.0 533.0,86.0 V88.0 Q533.0,92.0 529.0,92.0 H398.0 Z" fill="#eb6834"/><line x1="528.8" y1="87.0" x2="600.4" y2="87.0" stroke="#1e1b15" stroke-opacity="0.55" stroke-width="1.5"/><text x="606.4" y="91.0" font-family="ui-monospace, SFMono-Regular, Consolas, 'Liberation Mono', monospace" font-size="11" fill="#6e6654" font-weight="400">96,0 мс</text><path d="M398.0,96.0 H526.2 Q530.2,96.0 530.2,100.0 V102.0 Q530.2,106.0 526.2,106.0 H398.0 Z" fill="#2a78d6"/><line x1="524.2" y1="101.0" x2="531.6" y2="101.0" stroke="#1e1b15" stroke-opacity="0.55" stroke-width="1.5"/><text x="537.6" y="105.0" font-family="ui-monospace, SFMono-Regular, Consolas, 'Liberation Mono', monospace" font-size="11" fill="#1e1b15" font-weight="700">94,0 мс</text><path d="M398.0,110.0 H571.2 Q575.2,110.0 575.2,114.0 V116.0 Q575.2,120.0 571.2,120.0 H398.0 Z" fill="#1baf7a"/><line x1="567.5" y1="115.0" x2="591.7" y2="115.0" stroke="#1e1b15" stroke-opacity="0.55" stroke-width="1.5"/><text x="597.7" y="119.0" font-family="ui-monospace, SFMono-Regular, Consolas, 'Liberation Mono', monospace" font-size="11" fill="#6e6654" font-weight="400">126 мс</text><path d="M398.0,124.0 H565.7 Q569.7,124.0 569.7,128.0 V130.0 Q569.7,134.0 565.7,134.0 H398.0 Z" fill="#eda100"/><line x1="564.4" y1="129.0" x2="576.9" y2="129.0" stroke="#1e1b15" stroke-opacity="0.55" stroke-width="1.5"/><text x="582.9" y="133.0" font-family="ui-monospace, SFMono-Regular, Consolas, 'Liberation Mono', monospace" font-size="11" fill="#6e6654" font-weight="400">122 мс</text><path d="M398.0,138.0 H652.9 Q656.9,138.0 656.9,142.0 V144.0 Q656.9,148.0 652.9,148.0 H398.0 Z" fill="#e87ba4"/><line x1="652.0" y1="143.0" x2="672.0" y2="143.0" stroke="#1e1b15" stroke-opacity="0.55" stroke-width="1.5"/><text x="678.0" y="147.0" font-family="ui-monospace, SFMono-Regular, Consolas, 'Liberation Mono', monospace" font-size="11" fill="#6e6654" font-weight="400">184 мс</text><path d="M398.0,152.0 H534.5 Q538.5,152.0 538.5,156.0 V158.0 Q538.5,162.0 534.5,162.0 H398.0 Z" fill="#4a3aa7"/><line x1="533.2" y1="157.0" x2="560.7" y2="157.0" stroke="#1e1b15" stroke-opacity="0.55" stroke-width="1.5"/><text x="566.7" y="161.0" font-family="ui-monospace, SFMono-Regular, Consolas, 'Liberation Mono', monospace" font-size="11" fill="#6e6654" font-weight="400">99,9 мс</text><path d="M398.0,166.0 H633.0 Q637.0,166.0 637.0,170.0 V172.0 Q637.0,176.0 633.0,176.0 H398.0 Z" fill="#008300"/><line x1="628.0" y1="171.0" x2="641.3" y2="171.0" stroke="#1e1b15" stroke-opacity="0.55" stroke-width="1.5"/><text x="647.3" y="175.0" font-family="ui-monospace, SFMono-Regular, Consolas, 'Liberation Mono', monospace" font-size="11" fill="#6e6654" font-weight="400">170 мс</text><text x="0.0" y="214.0" font-family="system-ui, -apple-system, 'Segoe UI', Roboto, sans-serif" font-size="13.5" fill="#1e1b15" font-weight="600">Страница, LIMIT/OFFSET</text><path d="M0.0,224.0 H84.2 Q88.2,224.0 88.2,228.0 V230.0 Q88.2,234.0 84.2,234.0 H0.0 Z" fill="#eb6834"/><line x1="83.4" y1="229.0" x2="91.8" y2="229.0" stroke="#1e1b15" stroke-opacity="0.55" stroke-width="1.5"/><text x="97.8" y="233.0" font-family="ui-monospace, SFMono-Regular, Consolas, 'Liberation Mono', monospace" font-size="11" fill="#6e6654" font-weight="400">1,22 мс</text><path d="M0.0,238.0 H77.7 Q81.7,238.0 81.7,242.0 V244.0 Q81.7,248.0 77.7,248.0 H0.0 Z" fill="#2a78d6"/><line x1="74.4" y1="243.0" x2="95.1" y2="243.0" stroke="#1e1b15" stroke-opacity="0.55" stroke-width="1.5"/><text x="101.1" y="247.0" font-family="ui-monospace, SFMono-Regular, Consolas, 'Liberation Mono', monospace" font-size="11" fill="#1e1b15" font-weight="700">1,13 мс</text><path d="M0.0,252.0 H248.5 Q252.5,252.0 252.5,256.0 V258.0 Q252.5,262.0 248.5,262.0 H0.0 Z" fill="#1baf7a"/><line x1="236.5" y1="257.0" x2="274.0" y2="257.0" stroke="#1e1b15" stroke-opacity="0.55" stroke-width="1.5"/><text x="280.0" y="261.0" font-family="ui-monospace, SFMono-Regular, Consolas, 'Liberation Mono', monospace" font-size="11" fill="#6e6654" font-weight="400">3,50 мс</text><path d="M0.0,266.0 H183.7 Q187.7,266.0 187.7,270.0 V272.0 Q187.7,276.0 183.7,276.0 H0.0 Z" fill="#eda100"/><line x1="180.7" y1="271.0" x2="196.3" y2="271.0" stroke="#1e1b15" stroke-opacity="0.55" stroke-width="1.5"/><text x="202.3" y="275.0" font-family="ui-monospace, SFMono-Regular, Consolas, 'Liberation Mono', monospace" font-size="11" fill="#6e6654" font-weight="400">2,60 мс</text><path d="M0.0,280.0 H138.5 Q142.5,280.0 142.5,284.0 V286.0 Q142.5,290.0 138.5,290.0 H0.0 Z" fill="#e87ba4"/><line x1="137.7" y1="285.0" x2="161.0" y2="285.0" stroke="#1e1b15" stroke-opacity="0.55" stroke-width="1.5"/><text x="167.0" y="289.0" font-family="ui-monospace, SFMono-Regular, Consolas, 'Liberation Mono', monospace" font-size="11" fill="#6e6654" font-weight="400">1,97 мс</text><path d="M0.0,294.0 H146.9 Q150.9,294.0 150.9,298.0 V300.0 Q150.9,304.0 146.9,304.0 H0.0 Z" fill="#4a3aa7"/><line x1="147.1" y1="299.0" x2="169.6" y2="299.0" stroke="#1e1b15" stroke-opacity="0.55" stroke-width="1.5"/><text x="175.6" y="303.0" font-family="ui-monospace, SFMono-Regular, Consolas, 'Liberation Mono', monospace" font-size="11" fill="#6e6654" font-weight="400">2,09 мс</text><path d="M0.0,308.0 H142.4 Q146.4,308.0 146.4,312.0 V314.0 Q146.4,318.0 142.4,318.0 H0.0 Z" fill="#008300"/><line x1="142.5" y1="313.0" x2="176.4" y2="313.0" stroke="#1e1b15" stroke-opacity="0.55" stroke-width="1.5"/><text x="182.4" y="317.0" font-family="ui-monospace, SFMono-Regular, Consolas, 'Liberation Mono', monospace" font-size="11" fill="#6e6654" font-weight="400">2,03 мс</text><text x="398.0" y="214.0" font-family="system-ui, -apple-system, 'Segoe UI', Roboto, sans-serif" font-size="13.5" fill="#1e1b15" font-weight="600">Фильтр по двум полям</text><path d="M398.0,224.0 H495.9 Q499.9,224.0 499.9,228.0 V230.0 Q499.9,234.0 495.9,234.0 H398.0 Z" fill="#eb6834"/><line x1="493.0" y1="229.0" x2="503.9" y2="229.0" stroke="#1e1b15" stroke-opacity="0.55" stroke-width="1.5"/><text x="509.9" y="233.0" font-family="ui-monospace, SFMono-Regular, Consolas, 'Liberation Mono', monospace" font-size="11" fill="#6e6654" font-weight="400">1,86 мс</text><path d="M398.0,238.0 H483.7 Q487.7,238.0 487.7,242.0 V244.0 Q487.7,248.0 483.7,248.0 H398.0 Z" fill="#2a78d6"/><line x1="479.8" y1="243.0" x2="508.0" y2="243.0" stroke="#1e1b15" stroke-opacity="0.55" stroke-width="1.5"/><text x="514.0" y="247.0" font-family="ui-monospace, SFMono-Regular, Consolas, 'Liberation Mono', monospace" font-size="11" fill="#1e1b15" font-weight="700">1,64 мс</text><path d="M398.0,252.0 H640.1 Q644.1,252.0 644.1,256.0 V258.0 Q644.1,262.0 640.1,262.0 H398.0 Z" fill="#1baf7a"/><line x1="624.8" y1="257.0" x2="672.0" y2="257.0" stroke="#1e1b15" stroke-opacity="0.55" stroke-width="1.5"/><text x="678.0" y="261.0" font-family="ui-monospace, SFMono-Regular, Consolas, 'Liberation Mono', monospace" font-size="11" fill="#6e6654" font-weight="400">4,49 мс</text><path d="M398.0,266.0 H583.3 Q587.3,266.0 587.3,270.0 V272.0 Q587.3,276.0 583.3,276.0 H398.0 Z" fill="#eda100"/><line x1="580.4" y1="271.0" x2="602.5" y2="271.0" stroke="#1e1b15" stroke-opacity="0.55" stroke-width="1.5"/><text x="608.5" y="275.0" font-family="ui-monospace, SFMono-Regular, Consolas, 'Liberation Mono', monospace" font-size="11" fill="#6e6654" font-weight="400">3,45 мс</text><path d="M398.0,280.0 H531.2 Q535.2,280.0 535.2,284.0 V286.0 Q535.2,290.0 531.2,290.0 H398.0 Z" fill="#e87ba4"/><line x1="532.2" y1="285.0" x2="560.6" y2="285.0" stroke="#1e1b15" stroke-opacity="0.55" stroke-width="1.5"/><text x="566.6" y="289.0" font-family="ui-monospace, SFMono-Regular, Consolas, 'Liberation Mono', monospace" font-size="11" fill="#6e6654" font-weight="400">2,50 мс</text><path d="M398.0,294.0 H552.4 Q556.4,294.0 556.4,298.0 V300.0 Q556.4,304.0 552.4,304.0 H398.0 Z" fill="#4a3aa7"/><line x1="552.5" y1="299.0" x2="606.3" y2="299.0" stroke="#1e1b15" stroke-opacity="0.55" stroke-width="1.5"/><text x="612.3" y="303.0" font-family="ui-monospace, SFMono-Regular, Consolas, 'Liberation Mono', monospace" font-size="11" fill="#6e6654" font-weight="400">2,89 мс</text><path d="M398.0,308.0 H557.0 Q561.0,308.0 561.0,312.0 V314.0 Q561.0,318.0 557.0,318.0 H398.0 Z" fill="#008300"/><line x1="544.8" y1="313.0" x2="571.2" y2="313.0" stroke="#1e1b15" stroke-opacity="0.55" stroke-width="1.5"/><text x="577.2" y="317.0" font-family="ui-monospace, SFMono-Regular, Consolas, 'Liberation Mono', monospace" font-size="11" fill="#6e6654" font-weight="400">2,97 мс</text><text x="0.0" y="356.0" font-family="system-ui, -apple-system, 'Segoe UI', Roboto, sans-serif" font-size="13.5" fill="#1e1b15" font-weight="600">exists()</text><path d="M0.0,366.0 H47.8 Q51.8,366.0 51.8,370.0 V372.0 Q51.8,376.0 47.8,376.0 H0.0 Z" fill="#eb6834"/><line x1="48.2" y1="371.0" x2="58.4" y2="371.0" stroke="#1e1b15" stroke-opacity="0.55" stroke-width="1.5"/><text x="64.4" y="375.0" font-family="ui-monospace, SFMono-Regular, Consolas, 'Liberation Mono', monospace" font-size="11" fill="#1e1b15" font-weight="700">0,53 мс</text><path d="M0.0,380.0 H50.2 Q54.2,380.0 54.2,384.0 V386.0 Q54.2,390.0 50.2,390.0 H0.0 Z" fill="#2a78d6"/><line x1="51.8" y1="385.0" x2="65.0" y2="385.0" stroke="#1e1b15" stroke-opacity="0.55" stroke-width="1.5"/><text x="71.0" y="389.0" font-family="ui-monospace, SFMono-Regular, Consolas, 'Liberation Mono', monospace" font-size="11" fill="#6e6654" font-weight="400">0,55 мс</text><path d="M0.0,394.0 H220.2 Q224.2,394.0 224.2,398.0 V400.0 Q224.2,404.0 220.2,404.0 H0.0 Z" fill="#1baf7a"/><line x1="213.3" y1="399.0" x2="274.0" y2="399.0" stroke="#1e1b15" stroke-opacity="0.55" stroke-width="1.5"/><text x="280.0" y="403.0" font-family="ui-monospace, SFMono-Regular, Consolas, 'Liberation Mono', monospace" font-size="11" fill="#6e6654" font-weight="400">2,28 мс</text><path d="M0.0,408.0 H156.1 Q160.1,408.0 160.1,412.0 V414.0 Q160.1,418.0 156.1,418.0 H0.0 Z" fill="#eda100"/><line x1="151.8" y1="413.0" x2="217.0" y2="413.0" stroke="#1e1b15" stroke-opacity="0.55" stroke-width="1.5"/><text x="223.0" y="417.0" font-family="ui-monospace, SFMono-Regular, Consolas, 'Liberation Mono', monospace" font-size="11" fill="#6e6654" font-weight="400">1,63 мс</text><path d="M0.0,422.0 H88.3 Q92.3,422.0 92.3,426.0 V428.0 Q92.3,432.0 88.3,432.0 H0.0 Z" fill="#e87ba4"/><line x1="83.0" y1="427.0" x2="101.8" y2="427.0" stroke="#1e1b15" stroke-opacity="0.55" stroke-width="1.5"/><text x="107.8" y="431.0" font-family="ui-monospace, SFMono-Regular, Consolas, 'Liberation Mono', monospace" font-size="11" fill="#6e6654" font-weight="400">0,94 мс</text><path d="M0.0,436.0 H108.4 Q112.4,436.0 112.4,440.0 V442.0 Q112.4,446.0 108.4,446.0 H0.0 Z" fill="#4a3aa7"/><line x1="111.4" y1="441.0" x2="125.0" y2="441.0" stroke="#1e1b15" stroke-opacity="0.55" stroke-width="1.5"/><text x="131.0" y="445.0" font-family="ui-monospace, SFMono-Regular, Consolas, 'Liberation Mono', monospace" font-size="11" fill="#6e6654" font-weight="400">1,15 мс</text><path d="M0.0,450.0 H71.2 Q75.2,450.0 75.2,454.0 V456.0 Q75.2,460.0 71.2,460.0 H0.0 Z" fill="#008300"/><line x1="73.0" y1="455.0" x2="95.9" y2="455.0" stroke="#1e1b15" stroke-opacity="0.55" stroke-width="1.5"/><text x="101.9" y="459.0" font-family="ui-monospace, SFMono-Regular, Consolas, 'Liberation Mono', monospace" font-size="11" fill="#6e6654" font-weight="400">0,77 мс</text><text x="398.0" y="356.0" font-family="system-ui, -apple-system, 'Segoe UI', Roboto, sans-serif" font-size="13.5" fill="#1e1b15" font-weight="600">values_list(flat=True)</text><path d="M398.0,366.0 H483.5 Q487.5,366.0 487.5,370.0 V372.0 Q487.5,376.0 483.5,376.0 H398.0 Z" fill="#eb6834"/><line x1="481.9" y1="371.0" x2="498.0" y2="371.0" stroke="#1e1b15" stroke-opacity="0.55" stroke-width="1.5"/><text x="504.0" y="375.0" font-family="ui-monospace, SFMono-Regular, Consolas, 'Liberation Mono', monospace" font-size="11" fill="#6e6654" font-weight="400">1,14 мс</text><path d="M398.0,380.0 H479.0 Q483.0,380.0 483.0,384.0 V386.0 Q483.0,390.0 479.0,390.0 H398.0 Z" fill="#2a78d6"/><line x1="475.2" y1="385.0" x2="495.6" y2="385.0" stroke="#1e1b15" stroke-opacity="0.55" stroke-width="1.5"/><text x="501.6" y="389.0" font-family="ui-monospace, SFMono-Regular, Consolas, 'Liberation Mono', monospace" font-size="11" fill="#1e1b15" font-weight="700">1,09 мс</text><path d="M398.0,394.0 H635.1 Q639.1,394.0 639.1,398.0 V400.0 Q639.1,404.0 635.1,404.0 H398.0 Z" fill="#1baf7a"/><line x1="633.2" y1="399.0" x2="672.0" y2="399.0" stroke="#1e1b15" stroke-opacity="0.55" stroke-width="1.5"/><text x="678.0" y="403.0" font-family="ui-monospace, SFMono-Regular, Consolas, 'Liberation Mono', monospace" font-size="11" fill="#6e6654" font-weight="400">3,08 мс</text><path d="M398.0,408.0 H577.2 Q581.2,408.0 581.2,412.0 V414.0 Q581.2,418.0 577.2,418.0 H398.0 Z" fill="#eda100"/><line x1="570.4" y1="413.0" x2="627.9" y2="413.0" stroke="#1e1b15" stroke-opacity="0.55" stroke-width="1.5"/><text x="633.9" y="417.0" font-family="ui-monospace, SFMono-Regular, Consolas, 'Liberation Mono', monospace" font-size="11" fill="#6e6654" font-weight="400">2,34 мс</text><path d="M398.0,422.0 H513.1 Q517.1,422.0 517.1,426.0 V428.0 Q517.1,432.0 513.1,432.0 H398.0 Z" fill="#e87ba4"/><line x1="510.9" y1="427.0" x2="523.0" y2="427.0" stroke="#1e1b15" stroke-opacity="0.55" stroke-width="1.5"/><text x="529.0" y="431.0" font-family="ui-monospace, SFMono-Regular, Consolas, 'Liberation Mono', monospace" font-size="11" fill="#6e6654" font-weight="400">1,52 мс</text><path d="M398.0,436.0 H522.0 Q526.0,436.0 526.0,440.0 V442.0 Q526.0,446.0 522.0,446.0 H398.0 Z" fill="#4a3aa7"/><line x1="518.8" y1="441.0" x2="565.5" y2="441.0" stroke="#1e1b15" stroke-opacity="0.55" stroke-width="1.5"/><text x="571.5" y="445.0" font-family="ui-monospace, SFMono-Regular, Consolas, 'Liberation Mono', monospace" font-size="11" fill="#6e6654" font-weight="400">1,64 мс</text><path d="M398.0,450.0 H505.6 Q509.6,450.0 509.6,454.0 V456.0 Q509.6,460.0 505.6,460.0 H398.0 Z" fill="#008300"/><line x1="497.2" y1="455.0" x2="521.9" y2="455.0" stroke="#1e1b15" stroke-opacity="0.55" stroke-width="1.5"/><text x="527.9" y="459.0" font-family="ui-monospace, SFMono-Regular, Consolas, 'Liberation Mono', monospace" font-size="11" fill="#6e6654" font-weight="400">1,43 мс</text><text x="0.0" y="498.0" font-family="system-ui, -apple-system, 'Segoe UI', Roboto, sans-serif" font-size="13.5" fill="#1e1b15" font-weight="600">only(&quot;id&quot;, &quot;name&quot;)</text><path d="M0.0,508.0 H50.4 Q54.4,508.0 54.4,512.0 V514.0 Q54.4,518.0 50.4,518.0 H0.0 Z" fill="#eb6834"/><line x1="51.2" y1="513.0" x2="57.3" y2="513.0" stroke="#1e1b15" stroke-opacity="0.55" stroke-width="1.5"/><text x="63.3" y="517.0" font-family="ui-monospace, SFMono-Regular, Consolas, 'Liberation Mono', monospace" font-size="11" fill="#6e6654" font-weight="400">1,66 мс</text><path d="M0.0,522.0 H45.0 Q49.0,522.0 49.0,526.0 V528.0 Q49.0,532.0 45.0,532.0 H0.0 Z" fill="#2a78d6"/><line x1="47.6" y1="527.0" x2="66.2" y2="527.0" stroke="#1e1b15" stroke-opacity="0.55" stroke-width="1.5"/><text x="72.2" y="531.0" font-family="ui-monospace, SFMono-Regular, Consolas, 'Liberation Mono', monospace" font-size="11" fill="#1e1b15" font-weight="700">1,50 мс</text><path d="M0.0,536.0 H231.5 Q235.5,536.0 235.5,540.0 V542.0 Q235.5,546.0 231.5,546.0 H0.0 Z" fill="#1baf7a"/><line x1="223.1" y1="541.0" x2="274.0" y2="541.0" stroke="#1e1b15" stroke-opacity="0.55" stroke-width="1.5"/><text x="280.0" y="545.0" font-family="ui-monospace, SFMono-Regular, Consolas, 'Liberation Mono', monospace" font-size="11" fill="#6e6654" font-weight="400">7,19 мс</text><path d="M0.0,550.0 H206.7 Q210.7,550.0 210.7,554.0 V556.0 Q210.7,560.0 206.7,560.0 H0.0 Z" fill="#eda100"/><line x1="201.8" y1="555.0" x2="234.0" y2="555.0" stroke="#1e1b15" stroke-opacity="0.55" stroke-width="1.5"/><text x="240.0" y="559.0" font-family="ui-monospace, SFMono-Regular, Consolas, 'Liberation Mono', monospace" font-size="11" fill="#6e6654" font-weight="400">6,44 мс</text><path d="M0.0,564.0 H235.3 Q239.3,564.0 239.3,568.0 V570.0 Q239.3,574.0 235.3,574.0 H0.0 Z" fill="#e87ba4"/><line x1="225.2" y1="569.0" x2="244.8" y2="569.0" stroke="#1e1b15" stroke-opacity="0.55" stroke-width="1.5"/><text x="250.8" y="573.0" font-family="ui-monospace, SFMono-Regular, Consolas, 'Liberation Mono', monospace" font-size="11" fill="#6e6654" font-weight="400">7,31 мс</text><path d="M0.0,578.0 H69.0 Q73.0,578.0 73.0,582.0 V584.0 Q73.0,588.0 69.0,588.0 H0.0 Z" fill="#4a3aa7"/><line x1="71.9" y1="583.0" x2="88.9" y2="583.0" stroke="#1e1b15" stroke-opacity="0.55" stroke-width="1.5"/><text x="94.9" y="587.0" font-family="ui-monospace, SFMono-Regular, Consolas, 'Liberation Mono', monospace" font-size="11" fill="#6e6654" font-weight="400">2,23 мс</text><path d="M0.0,592.0 H176.5 Q180.5,592.0 180.5,596.0 V598.0 Q180.5,602.0 176.5,602.0 H0.0 Z" fill="#008300"/><line x1="163.1" y1="597.0" x2="185.0" y2="597.0" stroke="#1e1b15" stroke-opacity="0.55" stroke-width="1.5"/><text x="191.0" y="601.0" font-family="ui-monospace, SFMono-Regular, Consolas, 'Liberation Mono', monospace" font-size="11" fill="#6e6654" font-weight="400">5,51 мс</text><text x="398.0" y="498.0" font-family="system-ui, -apple-system, 'Segoe UI', Roboto, sans-serif" font-size="13.5" fill="#1e1b15" font-weight="600">OR + JOIN + distinct</text><path d="M398.0,508.0 H529.4 Q533.4,508.0 533.4,512.0 V514.0 Q533.4,518.0 529.4,518.0 H398.0 Z" fill="#eb6834"/><line x1="510.6" y1="513.0" x2="548.7" y2="513.0" stroke="#1e1b15" stroke-opacity="0.55" stroke-width="1.5"/><text x="554.7" y="517.0" font-family="ui-monospace, SFMono-Regular, Consolas, 'Liberation Mono', monospace" font-size="11" fill="#1e1b15" font-weight="700">4,49 мс</text><path d="M398.0,522.0 H534.9 Q538.9,522.0 538.9,526.0 V528.0 Q538.9,532.0 534.9,532.0 H398.0 Z" fill="#2a78d6"/><line x1="524.7" y1="527.0" x2="565.9" y2="527.0" stroke="#1e1b15" stroke-opacity="0.55" stroke-width="1.5"/><text x="571.9" y="531.0" font-family="ui-monospace, SFMono-Regular, Consolas, 'Liberation Mono', monospace" font-size="11" fill="#6e6654" font-weight="400">4,67 мс</text><path d="M398.0,536.0 H642.2 Q646.2,536.0 646.2,540.0 V542.0 Q646.2,546.0 642.2,546.0 H398.0 Z" fill="#1baf7a"/><line x1="621.0" y1="541.0" x2="651.5" y2="541.0" stroke="#1e1b15" stroke-opacity="0.55" stroke-width="1.5"/><text x="657.5" y="545.0" font-family="ui-monospace, SFMono-Regular, Consolas, 'Liberation Mono', monospace" font-size="11" fill="#6e6654" font-weight="400">8,23 мс</text><path d="M398.0,550.0 H627.3 Q631.3,550.0 631.3,554.0 V556.0 Q631.3,560.0 627.3,560.0 H398.0 Z" fill="#eda100"/><line x1="588.3" y1="555.0" x2="662.6" y2="555.0" stroke="#1e1b15" stroke-opacity="0.55" stroke-width="1.5"/><text x="668.6" y="559.0" font-family="ui-monospace, SFMono-Regular, Consolas, 'Liberation Mono', monospace" font-size="11" fill="#6e6654" font-weight="400">7,73 мс</text><path d="M398.0,564.0 H573.2 Q577.2,564.0 577.2,568.0 V570.0 Q577.2,574.0 573.2,574.0 H398.0 Z" fill="#e87ba4"/><line x1="553.8" y1="569.0" x2="595.9" y2="569.0" stroke="#1e1b15" stroke-opacity="0.55" stroke-width="1.5"/><text x="601.9" y="573.0" font-family="ui-monospace, SFMono-Regular, Consolas, 'Liberation Mono', monospace" font-size="11" fill="#6e6654" font-weight="400">5,94 мс</text><path d="M398.0,578.0 H638.1 Q642.1,578.0 642.1,582.0 V584.0 Q642.1,588.0 638.1,588.0 H398.0 Z" fill="#4a3aa7"/><line x1="629.1" y1="583.0" x2="672.0" y2="583.0" stroke="#1e1b15" stroke-opacity="0.55" stroke-width="1.5"/><text x="678.0" y="587.0" font-family="ui-monospace, SFMono-Regular, Consolas, 'Liberation Mono', monospace" font-size="11" fill="#6e6654" font-weight="400">8,09 мс</text><path d="M398.0,592.0 H565.2 Q569.2,592.0 569.2,596.0 V598.0 Q569.2,602.0 565.2,602.0 H398.0 Z" fill="#008300"/><line x1="554.1" y1="597.0" x2="626.7" y2="597.0" stroke="#1e1b15" stroke-opacity="0.55" stroke-width="1.5"/><text x="632.7" y="601.0" font-family="ui-monospace, SFMono-Regular, Consolas, 'Liberation Mono', monospace" font-size="11" fill="#6e6654" font-weight="400">5,67 мс</text><text x="0.0" y="640.0" font-family="system-ui, -apple-system, 'Segoe UI', Roboto, sans-serif" font-size="13.5" fill="#1e1b15" font-weight="600">id IN (200 значений)</text><path d="M0.0,650.0 H81.8 Q85.8,650.0 85.8,654.0 V656.0 Q85.8,660.0 81.8,660.0 H0.0 Z" fill="#eb6834"/><line x1="81.4" y1="655.0" x2="88.1" y2="655.0" stroke="#1e1b15" stroke-opacity="0.55" stroke-width="1.5"/><text x="94.1" y="659.0" font-family="ui-monospace, SFMono-Regular, Consolas, 'Liberation Mono', monospace" font-size="11" fill="#6e6654" font-weight="400">1,96 мс</text><path d="M0.0,664.0 H75.7 Q79.7,664.0 79.7,668.0 V670.0 Q79.7,674.0 75.7,674.0 H0.0 Z" fill="#2a78d6"/><line x1="76.9" y1="669.0" x2="98.0" y2="669.0" stroke="#1e1b15" stroke-opacity="0.55" stroke-width="1.5"/><text x="104.0" y="673.0" font-family="ui-monospace, SFMono-Regular, Consolas, 'Liberation Mono', monospace" font-size="11" fill="#1e1b15" font-weight="700">1,82 мс</text><path d="M0.0,678.0 H226.5 Q230.5,678.0 230.5,682.0 V684.0 Q230.5,688.0 226.5,688.0 H0.0 Z" fill="#1baf7a"/><line x1="225.4" y1="683.0" x2="237.2" y2="683.0" stroke="#1e1b15" stroke-opacity="0.55" stroke-width="1.5"/><text x="243.2" y="687.0" font-family="ui-monospace, SFMono-Regular, Consolas, 'Liberation Mono', monospace" font-size="11" fill="#6e6654" font-weight="400">5,27 мс</text><path d="M0.0,692.0 H192.0 Q196.0,692.0 196.0,696.0 V698.0 Q196.0,702.0 192.0,702.0 H0.0 Z" fill="#eda100"/><line x1="179.7" y1="697.0" x2="274.0" y2="697.0" stroke="#1e1b15" stroke-opacity="0.55" stroke-width="1.5"/><text x="280.0" y="701.0" font-family="ui-monospace, SFMono-Regular, Consolas, 'Liberation Mono', monospace" font-size="11" fill="#6e6654" font-weight="400">4,48 мс</text><path d="M0.0,706.0 H136.6 Q140.6,706.0 140.6,710.0 V712.0 Q140.6,716.0 136.6,716.0 H0.0 Z" fill="#e87ba4"/><line x1="134.5" y1="711.0" x2="141.5" y2="711.0" stroke="#1e1b15" stroke-opacity="0.55" stroke-width="1.5"/><text x="147.5" y="715.0" font-family="ui-monospace, SFMono-Regular, Consolas, 'Liberation Mono', monospace" font-size="11" fill="#6e6654" font-weight="400">3,21 мс</text><path d="M0.0,720.0 H151.3 Q155.3,720.0 155.3,724.0 V726.0 Q155.3,730.0 151.3,730.0 H0.0 Z" fill="#4a3aa7"/><line x1="137.1" y1="725.0" x2="186.9" y2="725.0" stroke="#1e1b15" stroke-opacity="0.55" stroke-width="1.5"/><text x="192.9" y="729.0" font-family="ui-monospace, SFMono-Regular, Consolas, 'Liberation Mono', monospace" font-size="11" fill="#6e6654" font-weight="400">3,55 мс</text><path d="M0.0,734.0 H156.4 Q160.4,734.0 160.4,738.0 V740.0 Q160.4,744.0 156.4,744.0 H0.0 Z" fill="#008300"/><line x1="150.6" y1="739.0" x2="179.9" y2="739.0" stroke="#1e1b15" stroke-opacity="0.55" stroke-width="1.5"/><text x="185.9" y="743.0" font-family="ui-monospace, SFMono-Regular, Consolas, 'Liberation Mono', monospace" font-size="11" fill="#6e6654" font-weight="400">3,67 мс</text><text x="398.0" y="640.0" font-family="system-ui, -apple-system, 'Segoe UI', Roboto, sans-serif" font-size="13.5" fill="#1e1b15" font-weight="600">Чтение JSON-поля</text><path d="M398.0,650.0 H504.1 Q508.1,650.0 508.1,654.0 V656.0 Q508.1,660.0 504.1,660.0 H398.0 Z" fill="#eb6834"/><line x1="498.5" y1="655.0" x2="514.9" y2="655.0" stroke="#1e1b15" stroke-opacity="0.55" stroke-width="1.5"/><text x="520.9" y="659.0" font-family="ui-monospace, SFMono-Regular, Consolas, 'Liberation Mono', monospace" font-size="11" fill="#6e6654" font-weight="400">13,4 мс</text><path d="M398.0,664.0 H483.7 Q487.7,664.0 487.7,668.0 V670.0 Q487.7,674.0 483.7,674.0 H398.0 Z" fill="#2a78d6"/><line x1="482.0" y1="669.0" x2="504.2" y2="669.0" stroke="#1e1b15" stroke-opacity="0.55" stroke-width="1.5"/><text x="510.2" y="673.0" font-family="ui-monospace, SFMono-Regular, Consolas, 'Liberation Mono', monospace" font-size="11" fill="#1e1b15" font-weight="700">10,9 мс</text><path d="M398.0,678.0 H557.5 Q561.5,678.0 561.5,682.0 V684.0 Q561.5,688.0 557.5,688.0 H398.0 Z" fill="#1baf7a"/><line x1="551.1" y1="683.0" x2="595.9" y2="683.0" stroke="#1e1b15" stroke-opacity="0.55" stroke-width="1.5"/><text x="601.9" y="687.0" font-family="ui-monospace, SFMono-Regular, Consolas, 'Liberation Mono', monospace" font-size="11" fill="#6e6654" font-weight="400">19,9 мс</text><path d="M398.0,692.0 H538.7 Q542.7,692.0 542.7,696.0 V698.0 Q542.7,702.0 538.7,702.0 H398.0 Z" fill="#eda100"/><line x1="539.8" y1="697.0" x2="663.4" y2="697.0" stroke="#1e1b15" stroke-opacity="0.55" stroke-width="1.5"/><text x="669.4" y="701.0" font-family="ui-monospace, SFMono-Regular, Consolas, 'Liberation Mono', monospace" font-size="11" fill="#6e6654" font-weight="400">17,6 мс</text><path d="M398.0,706.0 H539.2 Q543.2,706.0 543.2,710.0 V712.0 Q543.2,716.0 539.2,716.0 H398.0 Z" fill="#e87ba4"/><line x1="538.8" y1="711.0" x2="574.6" y2="711.0" stroke="#1e1b15" stroke-opacity="0.55" stroke-width="1.5"/><text x="580.6" y="715.0" font-family="ui-monospace, SFMono-Regular, Consolas, 'Liberation Mono', monospace" font-size="11" fill="#6e6654" font-weight="400">17,7 мс</text><path d="M398.0,720.0 H629.5 Q633.5,720.0 633.5,724.0 V726.0 Q633.5,730.0 629.5,730.0 H398.0 Z" fill="#4a3aa7"/><line x1="621.1" y1="725.0" x2="672.0" y2="725.0" stroke="#1e1b15" stroke-opacity="0.55" stroke-width="1.5"/><text x="678.0" y="729.0" font-family="ui-monospace, SFMono-Regular, Consolas, 'Liberation Mono', monospace" font-size="11" fill="#6e6654" font-weight="400">28,7 мс</text><path d="M398.0,734.0 H584.0 Q588.0,734.0 588.0,738.0 V740.0 Q588.0,744.0 584.0,744.0 H398.0 Z" fill="#008300"/><line x1="574.5" y1="739.0" x2="592.6" y2="739.0" stroke="#1e1b15" stroke-opacity="0.55" stroke-width="1.5"/><text x="598.6" y="743.0" font-family="ui-monospace, SFMono-Regular, Consolas, 'Liberation Mono', monospace" font-size="11" fill="#6e6654" font-weight="400">23,2 мс</text></g></svg>
