<svg xmlns="http://www.w3.org/2000/svg" viewBox="0 0 800 1100" width="800" height="1100" role="img"><title>Reads</title><rect width="800" height="1100" rx="10" fill="#15130f"/><g transform="translate(20,20)"><rect x="0.0" y="3.0" width="12" height="12" rx="3" fill="#d95926"/><text x="18.0" y="13.5" font-family="system-ui, -apple-system, 'Segoe UI', Roboto, sans-serif" font-size="13" fill="#ede7d8">hare</text><rect x="68.8" y="3.0" width="12" height="12" rx="3" fill="#199e70"/><text x="86.8" y="13.5" font-family="system-ui, -apple-system, 'Segoe UI', Roboto, sans-serif" font-size="13" fill="#ede7d8">SQLAlchemy</text><rect x="180.8" y="3.0" width="12" height="12" rx="3" fill="#c98500"/><text x="198.8" y="13.5" font-family="system-ui, -apple-system, 'Segoe UI', Roboto, sans-serif" font-size="13" fill="#ede7d8">SQLAlchemy (autocommit)</text><rect x="386.4" y="3.0" width="12" height="12" rx="3" fill="#d55181"/><text x="404.4" y="13.5" font-family="system-ui, -apple-system, 'Segoe UI', Roboto, sans-serif" font-size="13" fill="#ede7d8">tortoise-orm</text><rect x="512.8" y="3.0" width="12" height="12" rx="3" fill="#9085e9"/><text x="530.8" y="13.5" font-family="system-ui, -apple-system, 'Segoe UI', Roboto, sans-serif" font-size="13" fill="#ede7d8">yara-orm</text><rect x="610.4" y="3.0" width="12" height="12" rx="3" fill="#008300"/><text x="628.4" y="13.5" font-family="system-ui, -apple-system, 'Segoe UI', Roboto, sans-serif" font-size="13" fill="#ede7d8">Django</text><text x="0.0" y="50.0" font-family="system-ui, -apple-system, 'Segoe UI', Roboto, sans-serif" font-size="13.5" fill="#ede7d8" font-weight="600">All 1000 rows</text><path d="M0.0,60.0 H78.9 Q82.9,60.0 82.9,64.0 V66.0 Q82.9,70.0 78.9,70.0 H0.0 Z" fill="#d95926"/><line x1="82.4" y1="65.0" x2="87.7" y2="65.0" stroke="#ede7d8" stroke-opacity="0.55" stroke-width="1.5"/><text x="93.7" y="69.0" font-family="ui-monospace, SFMono-Regular, Consolas, 'Liberation Mono', monospace" font-size="11" fill="#ede7d8" font-weight="700">3.02 ms</text><path d="M0.0,74.0 H238.0 Q242.0,74.0 242.0,78.0 V80.0 Q242.0,84.0 238.0,84.0 H0.0 Z" fill="#199e70"/><line x1="231.7" y1="79.0" x2="258.0" y2="79.0" stroke="#ede7d8" stroke-opacity="0.55" stroke-width="1.5"/><text x="264.0" y="83.0" font-family="ui-monospace, SFMono-Regular, Consolas, 'Liberation Mono', monospace" font-size="11" fill="#a89e86" font-weight="400">8.82 ms</text><path d="M0.0,88.0 H222.5 Q226.5,88.0 226.5,92.0 V94.0 Q226.5,98.0 222.5,98.0 H0.0 Z" fill="#c98500"/><line x1="225.9" y1="93.0" x2="267.6" y2="93.0" stroke="#ede7d8" stroke-opacity="0.55" stroke-width="1.5"/><text x="273.6" y="97.0" font-family="ui-monospace, SFMono-Regular, Consolas, 'Liberation Mono', monospace" font-size="11" fill="#a89e86" font-weight="400">8.26 ms</text><path d="M0.0,102.0 H174.2 Q178.2,102.0 178.2,106.0 V108.0 Q178.2,112.0 174.2,112.0 H0.0 Z" fill="#d55181"/><line x1="177.6" y1="107.0" x2="182.8" y2="107.0" stroke="#ede7d8" stroke-opacity="0.55" stroke-width="1.5"/><text x="188.8" y="111.0" font-family="ui-monospace, SFMono-Regular, Consolas, 'Liberation Mono', monospace" font-size="11" fill="#a89e86" font-weight="400">6.50 ms</text><path d="M0.0,116.0 H255.7 Q259.7,116.0 259.7,120.0 V122.0 Q259.7,126.0 255.7,126.0 H0.0 Z" fill="#9085e9"/><line x1="255.7" y1="121.0" x2="274.0" y2="121.0" stroke="#ede7d8" stroke-opacity="0.55" stroke-width="1.5"/><text x="280.0" y="125.0" font-family="ui-monospace, SFMono-Regular, Consolas, 'Liberation Mono', monospace" font-size="11" fill="#a89e86" font-weight="400">9.47 ms</text><path d="M0.0,130.0 H226.8 Q230.8,130.0 230.8,134.0 V136.0 Q230.8,140.0 226.8,140.0 H0.0 Z" fill="#008300"/><line x1="226.8" y1="135.0" x2="231.3" y2="135.0" stroke="#ede7d8" stroke-opacity="0.55" stroke-width="1.5"/><text x="237.3" y="139.0" font-family="ui-monospace, SFMono-Regular, Consolas, 'Liberation Mono', monospace" font-size="11" fill="#a89e86" font-weight="400">8.41 ms</text><text x="398.0" y="50.0" font-family="system-ui, -apple-system, 'Segoe UI', Roboto, sans-serif" font-size="13.5" fill="#ede7d8" font-weight="600">200 × get() by primary key</text><path d="M398.0,60.0 H436.6 Q440.6,60.0 440.6,64.0 V66.0 Q440.6,70.0 436.6,70.0 H398.0 Z" fill="#d95926"/><line x1="439.9" y1="65.0" x2="442.8" y2="65.0" stroke="#ede7d8" stroke-opacity="0.55" stroke-width="1.5"/><text x="448.8" y="69.0" font-family="ui-monospace, SFMono-Regular, Consolas, 'Liberation Mono', monospace" font-size="11" fill="#ede7d8" font-weight="700">14.8 ms</text><path d="M398.0,74.0 H619.4 Q623.4,74.0 623.4,78.0 V80.0 Q623.4,84.0 619.4,84.0 H398.0 Z" fill="#199e70"/><line x1="607.6" y1="79.0" x2="642.8" y2="79.0" stroke="#ede7d8" stroke-opacity="0.55" stroke-width="1.5"/><text x="648.8" y="83.0" font-family="ui-monospace, SFMono-Regular, Consolas, 'Liberation Mono', monospace" font-size="11" fill="#a89e86" font-weight="400">78.2 ms</text><path d="M398.0,88.0 H624.6 Q628.6,88.0 628.6,92.0 V94.0 Q628.6,98.0 624.6,98.0 H398.0 Z" fill="#c98500"/><line x1="615.3" y1="93.0" x2="672.0" y2="93.0" stroke="#ede7d8" stroke-opacity="0.55" stroke-width="1.5"/><text x="678.0" y="97.0" font-family="ui-monospace, SFMono-Regular, Consolas, 'Liberation Mono', monospace" font-size="11" fill="#a89e86" font-weight="400">80.0 ms</text><path d="M398.0,102.0 H474.2 Q478.2,102.0 478.2,106.0 V108.0 Q478.2,112.0 474.2,112.0 H398.0 Z" fill="#d55181"/><line x1="476.6" y1="107.0" x2="478.8" y2="107.0" stroke="#ede7d8" stroke-opacity="0.55" stroke-width="1.5"/><text x="484.8" y="111.0" font-family="ui-monospace, SFMono-Regular, Consolas, 'Liberation Mono', monospace" font-size="11" fill="#a89e86" font-weight="400">27.8 ms</text><path d="M398.0,116.0 H457.0 Q461.0,116.0 461.0,120.0 V122.0 Q461.0,126.0 457.0,126.0 H398.0 Z" fill="#9085e9"/><line x1="457.8" y1="121.0" x2="461.7" y2="121.0" stroke="#ede7d8" stroke-opacity="0.55" stroke-width="1.5"/><text x="467.7" y="125.0" font-family="ui-monospace, SFMono-Regular, Consolas, 'Liberation Mono', monospace" font-size="11" fill="#a89e86" font-weight="400">21.8 ms</text><path d="M398.0,130.0 H619.9 Q623.9,130.0 623.9,134.0 V136.0 Q623.9,140.0 619.9,140.0 H398.0 Z" fill="#008300"/><line x1="619.6" y1="135.0" x2="627.6" y2="135.0" stroke="#ede7d8" stroke-opacity="0.55" stroke-width="1.5"/><text x="633.6" y="139.0" font-family="ui-monospace, SFMono-Regular, Consolas, 'Liberation Mono', monospace" font-size="11" fill="#a89e86" font-weight="400">78.4 ms</text><text x="0.0" y="178.0" font-family="system-ui, -apple-system, 'Segoe UI', Roboto, sans-serif" font-size="13.5" fill="#ede7d8" font-weight="600">200 × first()</text><path d="M0.0,188.0 H43.5 Q47.5,188.0 47.5,192.0 V194.0 Q47.5,198.0 43.5,198.0 H0.0 Z" fill="#d95926"/><line x1="45.1" y1="193.0" x2="51.0" y2="193.0" stroke="#ede7d8" stroke-opacity="0.55" stroke-width="1.5"/><text x="57.0" y="197.0" font-family="ui-monospace, SFMono-Regular, Consolas, 'Liberation Mono', monospace" font-size="11" fill="#ede7d8" font-weight="700">18.5 ms</text><path d="M0.0,202.0 H249.3 Q253.3,202.0 253.3,206.0 V208.0 Q253.3,212.0 249.3,212.0 H0.0 Z" fill="#199e70"/><line x1="224.4" y1="207.0" x2="254.7" y2="207.0" stroke="#ede7d8" stroke-opacity="0.55" stroke-width="1.5"/><text x="260.7" y="211.0" font-family="ui-monospace, SFMono-Regular, Consolas, 'Liberation Mono', monospace" font-size="11" fill="#a89e86" font-weight="400">98.9 ms</text><path d="M0.0,216.0 H236.6 Q240.6,216.0 240.6,220.0 V222.0 Q240.6,226.0 236.6,226.0 H0.0 Z" fill="#c98500"/><line x1="223.7" y1="221.0" x2="274.0" y2="221.0" stroke="#ede7d8" stroke-opacity="0.55" stroke-width="1.5"/><text x="280.0" y="225.0" font-family="ui-monospace, SFMono-Regular, Consolas, 'Liberation Mono', monospace" font-size="11" fill="#a89e86" font-weight="400">93.9 ms</text><path d="M0.0,230.0 H84.6 Q88.6,230.0 88.6,234.0 V236.0 Q88.6,240.0 84.6,240.0 H0.0 Z" fill="#d55181"/><line x1="84.0" y1="235.0" x2="119.0" y2="235.0" stroke="#ede7d8" stroke-opacity="0.55" stroke-width="1.5"/><text x="125.0" y="239.0" font-family="ui-monospace, SFMono-Regular, Consolas, 'Liberation Mono', monospace" font-size="11" fill="#a89e86" font-weight="400">34.6 ms</text><path d="M0.0,244.0 H61.2 Q65.2,244.0 65.2,248.0 V250.0 Q65.2,254.0 61.2,254.0 H0.0 Z" fill="#9085e9"/><line x1="64.2" y1="249.0" x2="71.4" y2="249.0" stroke="#ede7d8" stroke-opacity="0.55" stroke-width="1.5"/><text x="77.4" y="253.0" font-family="ui-monospace, SFMono-Regular, Consolas, 'Liberation Mono', monospace" font-size="11" fill="#a89e86" font-weight="400">25.5 ms</text><path d="M0.0,258.0 H220.7 Q224.7,258.0 224.7,262.0 V264.0 Q224.7,268.0 220.7,268.0 H0.0 Z" fill="#008300"/><line x1="217.7" y1="263.0" x2="226.8" y2="263.0" stroke="#ede7d8" stroke-opacity="0.55" stroke-width="1.5"/><text x="232.8" y="267.0" font-family="ui-monospace, SFMono-Regular, Consolas, 'Liberation Mono', monospace" font-size="11" fill="#a89e86" font-weight="400">87.7 ms</text><text x="398.0" y="178.0" font-family="system-ui, -apple-system, 'Segoe UI', Roboto, sans-serif" font-size="13.5" fill="#ede7d8" font-weight="600">A page, LIMIT/OFFSET</text><path d="M398.0,188.0 H455.4 Q459.4,188.0 459.4,192.0 V194.0 Q459.4,198.0 455.4,198.0 H398.0 Z" fill="#d95926"/><line x1="458.7" y1="193.0" x2="466.6" y2="193.0" stroke="#ede7d8" stroke-opacity="0.55" stroke-width="1.5"/><text x="472.6" y="197.0" font-family="ui-monospace, SFMono-Regular, Consolas, 'Liberation Mono', monospace" font-size="11" fill="#ede7d8" font-weight="700">0.35 ms</text><path d="M398.0,202.0 H631.4 Q635.4,202.0 635.4,206.0 V208.0 Q635.4,212.0 631.4,212.0 H398.0 Z" fill="#199e70"/><line x1="625.4" y1="207.0" x2="653.6" y2="207.0" stroke="#ede7d8" stroke-opacity="0.55" stroke-width="1.5"/><text x="659.6" y="211.0" font-family="ui-monospace, SFMono-Regular, Consolas, 'Liberation Mono', monospace" font-size="11" fill="#a89e86" font-weight="400">1.36 ms</text><path d="M398.0,216.0 H644.9 Q648.9,216.0 648.9,220.0 V222.0 Q648.9,226.0 644.9,226.0 H398.0 Z" fill="#c98500"/><line x1="619.1" y1="221.0" x2="672.0" y2="221.0" stroke="#ede7d8" stroke-opacity="0.55" stroke-width="1.5"/><text x="678.0" y="225.0" font-family="ui-monospace, SFMono-Regular, Consolas, 'Liberation Mono', monospace" font-size="11" fill="#a89e86" font-weight="400">1.44 ms</text><path d="M398.0,230.0 H539.8 Q543.8,230.0 543.8,234.0 V236.0 Q543.8,240.0 539.8,240.0 H398.0 Z" fill="#d55181"/><line x1="526.8" y1="235.0" x2="544.7" y2="235.0" stroke="#ede7d8" stroke-opacity="0.55" stroke-width="1.5"/><text x="550.7" y="239.0" font-family="ui-monospace, SFMono-Regular, Consolas, 'Liberation Mono', monospace" font-size="11" fill="#a89e86" font-weight="400">0.84 ms</text><path d="M398.0,244.0 H520.9 Q524.9,244.0 524.9,248.0 V250.0 Q524.9,254.0 520.9,254.0 H398.0 Z" fill="#9085e9"/><line x1="524.3" y1="249.0" x2="528.9" y2="249.0" stroke="#ede7d8" stroke-opacity="0.55" stroke-width="1.5"/><text x="534.9" y="253.0" font-family="ui-monospace, SFMono-Regular, Consolas, 'Liberation Mono', monospace" font-size="11" fill="#a89e86" font-weight="400">0.73 ms</text><path d="M398.0,258.0 H600.5 Q604.5,258.0 604.5,262.0 V264.0 Q604.5,268.0 600.5,268.0 H398.0 Z" fill="#008300"/><line x1="602.5" y1="263.0" x2="610.3" y2="263.0" stroke="#ede7d8" stroke-opacity="0.55" stroke-width="1.5"/><text x="616.3" y="267.0" font-family="ui-monospace, SFMono-Regular, Consolas, 'Liberation Mono', monospace" font-size="11" fill="#a89e86" font-weight="400">1.19 ms</text><text x="0.0" y="306.0" font-family="system-ui, -apple-system, 'Segoe UI', Roboto, sans-serif" font-size="13.5" fill="#ede7d8" font-weight="600">order_by() + the first 10</text><path d="M0.0,316.0 H103.6 Q107.6,316.0 107.6,320.0 V322.0 Q107.6,326.0 103.6,326.0 H0.0 Z" fill="#d95926"/><line x1="101.8" y1="321.0" x2="109.6" y2="321.0" stroke="#ede7d8" stroke-opacity="0.55" stroke-width="1.5"/><text x="115.6" y="325.0" font-family="ui-monospace, SFMono-Regular, Consolas, 'Liberation Mono', monospace" font-size="11" fill="#ede7d8" font-weight="700">0.57 ms</text><path d="M0.0,330.0 H231.5 Q235.5,330.0 235.5,334.0 V336.0 Q235.5,340.0 231.5,340.0 H0.0 Z" fill="#199e70"/><line x1="218.3" y1="335.0" x2="271.0" y2="335.0" stroke="#ede7d8" stroke-opacity="0.55" stroke-width="1.5"/><text x="277.0" y="339.0" font-family="ui-monospace, SFMono-Regular, Consolas, 'Liberation Mono', monospace" font-size="11" fill="#a89e86" font-weight="400">1.25 ms</text><path d="M0.0,344.0 H239.9 Q243.9,344.0 243.9,348.0 V350.0 Q243.9,354.0 239.9,354.0 H0.0 Z" fill="#c98500"/><line x1="219.6" y1="349.0" x2="274.0" y2="349.0" stroke="#ede7d8" stroke-opacity="0.55" stroke-width="1.5"/><text x="280.0" y="353.0" font-family="ui-monospace, SFMono-Regular, Consolas, 'Liberation Mono', monospace" font-size="11" fill="#a89e86" font-weight="400">1.29 ms</text><path d="M0.0,358.0 H128.2 Q132.2,358.0 132.2,362.0 V364.0 Q132.2,368.0 128.2,368.0 H0.0 Z" fill="#d55181"/><line x1="127.5" y1="363.0" x2="141.3" y2="363.0" stroke="#ede7d8" stroke-opacity="0.55" stroke-width="1.5"/><text x="147.3" y="367.0" font-family="ui-monospace, SFMono-Regular, Consolas, 'Liberation Mono', monospace" font-size="11" fill="#a89e86" font-weight="400">0.70 ms</text><path d="M0.0,372.0 H129.2 Q133.2,372.0 133.2,376.0 V378.0 Q133.2,382.0 129.2,382.0 H0.0 Z" fill="#9085e9"/><text x="139.5" y="381.0" font-family="ui-monospace, SFMono-Regular, Consolas, 'Liberation Mono', monospace" font-size="11" fill="#a89e86" font-weight="400">0.71 ms</text><path d="M0.0,386.0 H163.6 Q167.6,386.0 167.6,390.0 V392.0 Q167.6,396.0 163.6,396.0 H0.0 Z" fill="#008300"/><line x1="167.4" y1="391.0" x2="174.2" y2="391.0" stroke="#ede7d8" stroke-opacity="0.55" stroke-width="1.5"/><text x="180.2" y="395.0" font-family="ui-monospace, SFMono-Regular, Consolas, 'Liberation Mono', monospace" font-size="11" fill="#a89e86" font-weight="400">0.89 ms</text><text x="398.0" y="306.0" font-family="system-ui, -apple-system, 'Segoe UI', Roboto, sans-serif" font-size="13.5" fill="#ede7d8" font-weight="600">Filter on two fields</text><path d="M398.0,316.0 H450.1 Q454.1,316.0 454.1,320.0 V322.0 Q454.1,326.0 450.1,326.0 H398.0 Z" fill="#d95926"/><line x1="453.4" y1="321.0" x2="462.7" y2="321.0" stroke="#ede7d8" stroke-opacity="0.55" stroke-width="1.5"/><text x="468.7" y="325.0" font-family="ui-monospace, SFMono-Regular, Consolas, 'Liberation Mono', monospace" font-size="11" fill="#ede7d8" font-weight="700">0.31 ms</text><path d="M398.0,330.0 H640.1 Q644.1,330.0 644.1,334.0 V336.0 Q644.1,340.0 640.1,340.0 H398.0 Z" fill="#199e70"/><line x1="616.9" y1="335.0" x2="672.0" y2="335.0" stroke="#ede7d8" stroke-opacity="0.55" stroke-width="1.5"/><text x="678.0" y="339.0" font-family="ui-monospace, SFMono-Regular, Consolas, 'Liberation Mono', monospace" font-size="11" fill="#a89e86" font-weight="400">1.38 ms</text><path d="M398.0,344.0 H630.7 Q634.7,344.0 634.7,348.0 V350.0 Q634.7,354.0 630.7,354.0 H398.0 Z" fill="#c98500"/><line x1="616.0" y1="349.0" x2="661.1" y2="349.0" stroke="#ede7d8" stroke-opacity="0.55" stroke-width="1.5"/><text x="667.1" y="353.0" font-family="ui-monospace, SFMono-Regular, Consolas, 'Liberation Mono', monospace" font-size="11" fill="#a89e86" font-weight="400">1.32 ms</text><path d="M398.0,358.0 H522.6 Q526.6,358.0 526.6,362.0 V364.0 Q526.6,368.0 522.6,368.0 H398.0 Z" fill="#d55181"/><line x1="515.1" y1="363.0" x2="532.2" y2="363.0" stroke="#ede7d8" stroke-opacity="0.55" stroke-width="1.5"/><text x="538.2" y="367.0" font-family="ui-monospace, SFMono-Regular, Consolas, 'Liberation Mono', monospace" font-size="11" fill="#a89e86" font-weight="400">0.72 ms</text><path d="M398.0,372.0 H515.2 Q519.2,372.0 519.2,376.0 V378.0 Q519.2,382.0 515.2,382.0 H398.0 Z" fill="#9085e9"/><line x1="514.3" y1="377.0" x2="519.6" y2="377.0" stroke="#ede7d8" stroke-opacity="0.55" stroke-width="1.5"/><text x="525.6" y="381.0" font-family="ui-monospace, SFMono-Regular, Consolas, 'Liberation Mono', monospace" font-size="11" fill="#a89e86" font-weight="400">0.68 ms</text><path d="M398.0,386.0 H581.1 Q585.1,386.0 585.1,390.0 V392.0 Q585.1,396.0 581.1,396.0 H398.0 Z" fill="#008300"/><line x1="576.8" y1="391.0" x2="588.2" y2="391.0" stroke="#ede7d8" stroke-opacity="0.55" stroke-width="1.5"/><text x="594.2" y="395.0" font-family="ui-monospace, SFMono-Regular, Consolas, 'Liberation Mono', monospace" font-size="11" fill="#a89e86" font-weight="400">1.05 ms</text><text x="0.0" y="434.0" font-family="system-ui, -apple-system, 'Segoe UI', Roboto, sans-serif" font-size="13.5" fill="#ede7d8" font-weight="600">icontains search</text><path d="M0.0,444.0 H143.5 Q147.5,444.0 147.5,448.0 V450.0 Q147.5,454.0 143.5,454.0 H0.0 Z" fill="#d95926"/><line x1="144.6" y1="449.0" x2="151.6" y2="449.0" stroke="#ede7d8" stroke-opacity="0.55" stroke-width="1.5"/><text x="157.6" y="453.0" font-family="ui-monospace, SFMono-Regular, Consolas, 'Liberation Mono', monospace" font-size="11" fill="#a89e86" font-weight="400">1.07 ms</text><path d="M0.0,458.0 H240.1 Q244.1,458.0 244.1,462.0 V464.0 Q244.1,468.0 240.1,468.0 H0.0 Z" fill="#199e70"/><line x1="229.1" y1="463.0" x2="245.3" y2="463.0" stroke="#ede7d8" stroke-opacity="0.55" stroke-width="1.5"/><text x="251.3" y="467.0" font-family="ui-monospace, SFMono-Regular, Consolas, 'Liberation Mono', monospace" font-size="11" fill="#a89e86" font-weight="400">1.77 ms</text><path d="M0.0,472.0 H226.6 Q230.6,472.0 230.6,476.0 V478.0 Q230.6,482.0 226.6,482.0 H0.0 Z" fill="#c98500"/><line x1="221.0" y1="477.0" x2="274.0" y2="477.0" stroke="#ede7d8" stroke-opacity="0.55" stroke-width="1.5"/><text x="280.0" y="481.0" font-family="ui-monospace, SFMono-Regular, Consolas, 'Liberation Mono', monospace" font-size="11" fill="#a89e86" font-weight="400">1.68 ms</text><path d="M0.0,486.0 H143.2 Q147.2,486.0 147.2,490.0 V492.0 Q147.2,496.0 143.2,496.0 H0.0 Z" fill="#d55181"/><line x1="131.8" y1="491.0" x2="147.8" y2="491.0" stroke="#ede7d8" stroke-opacity="0.55" stroke-width="1.5"/><text x="153.8" y="495.0" font-family="ui-monospace, SFMono-Regular, Consolas, 'Liberation Mono', monospace" font-size="11" fill="#a89e86" font-weight="400">1.07 ms</text><path d="M0.0,500.0 H114.9 Q118.9,500.0 118.9,504.0 V506.0 Q118.9,510.0 114.9,510.0 H0.0 Z" fill="#9085e9"/><line x1="117.2" y1="505.0" x2="120.0" y2="505.0" stroke="#ede7d8" stroke-opacity="0.55" stroke-width="1.5"/><text x="126.0" y="509.0" font-family="ui-monospace, SFMono-Regular, Consolas, 'Liberation Mono', monospace" font-size="11" fill="#ede7d8" font-weight="700">0.86 ms</text><path d="M0.0,514.0 H183.2 Q187.2,514.0 187.2,518.0 V520.0 Q187.2,524.0 183.2,524.0 H0.0 Z" fill="#008300"/><line x1="183.9" y1="519.0" x2="191.0" y2="519.0" stroke="#ede7d8" stroke-opacity="0.55" stroke-width="1.5"/><text x="197.0" y="523.0" font-family="ui-monospace, SFMono-Regular, Consolas, 'Liberation Mono', monospace" font-size="11" fill="#a89e86" font-weight="400">1.36 ms</text><text x="398.0" y="434.0" font-family="system-ui, -apple-system, 'Segoe UI', Roboto, sans-serif" font-size="13.5" fill="#ede7d8" font-weight="600">exists()</text><path d="M398.0,444.0 H433.1 Q437.1,444.0 437.1,448.0 V450.0 Q437.1,454.0 433.1,454.0 H398.0 Z" fill="#d95926"/><line x1="436.4" y1="449.0" x2="451.6" y2="449.0" stroke="#ede7d8" stroke-opacity="0.55" stroke-width="1.5"/><text x="457.6" y="453.0" font-family="ui-monospace, SFMono-Regular, Consolas, 'Liberation Mono', monospace" font-size="11" fill="#ede7d8" font-weight="700">0.09 ms</text><path d="M398.0,458.0 H627.0 Q631.0,458.0 631.0,462.0 V464.0 Q631.0,468.0 627.0,468.0 H398.0 Z" fill="#199e70"/><line x1="628.7" y1="463.0" x2="672.0" y2="463.0" stroke="#ede7d8" stroke-opacity="0.55" stroke-width="1.5"/><text x="678.0" y="467.0" font-family="ui-monospace, SFMono-Regular, Consolas, 'Liberation Mono', monospace" font-size="11" fill="#a89e86" font-weight="400">0.54 ms</text><path d="M398.0,472.0 H649.6 Q653.6,472.0 653.6,476.0 V478.0 Q653.6,482.0 649.6,482.0 H398.0 Z" fill="#c98500"/><line x1="618.5" y1="477.0" x2="654.8" y2="477.0" stroke="#ede7d8" stroke-opacity="0.55" stroke-width="1.5"/><text x="660.8" y="481.0" font-family="ui-monospace, SFMono-Regular, Consolas, 'Liberation Mono', monospace" font-size="11" fill="#a89e86" font-weight="400">0.59 ms</text><path d="M398.0,486.0 H444.8 Q448.8,486.0 448.8,490.0 V492.0 Q448.8,496.0 444.8,496.0 H398.0 Z" fill="#d55181"/><line x1="448.6" y1="491.0" x2="453.0" y2="491.0" stroke="#ede7d8" stroke-opacity="0.55" stroke-width="1.5"/><text x="459.0" y="495.0" font-family="ui-monospace, SFMono-Regular, Consolas, 'Liberation Mono', monospace" font-size="11" fill="#a89e86" font-weight="400">0.12 ms</text><path d="M398.0,500.0 H436.6 Q440.6,500.0 440.6,504.0 V506.0 Q440.6,510.0 436.6,510.0 H398.0 Z" fill="#9085e9"/><line x1="438.9" y1="505.0" x2="441.2" y2="505.0" stroke="#ede7d8" stroke-opacity="0.55" stroke-width="1.5"/><text x="447.2" y="509.0" font-family="ui-monospace, SFMono-Regular, Consolas, 'Liberation Mono', monospace" font-size="11" fill="#a89e86" font-weight="400">0.10 ms</text><path d="M398.0,514.0 H535.3 Q539.3,514.0 539.3,518.0 V520.0 Q539.3,524.0 535.3,524.0 H398.0 Z" fill="#008300"/><line x1="531.7" y1="519.0" x2="541.4" y2="519.0" stroke="#ede7d8" stroke-opacity="0.55" stroke-width="1.5"/><text x="547.4" y="523.0" font-family="ui-monospace, SFMono-Regular, Consolas, 'Liberation Mono', monospace" font-size="11" fill="#a89e86" font-weight="400">0.33 ms</text><text x="0.0" y="562.0" font-family="system-ui, -apple-system, 'Segoe UI', Roboto, sans-serif" font-size="13.5" fill="#ede7d8" font-weight="600">values_list(flat=True)</text><path d="M0.0,572.0 H71.9 Q75.9,572.0 75.9,576.0 V578.0 Q75.9,582.0 71.9,582.0 H0.0 Z" fill="#d95926"/><line x1="73.2" y1="577.0" x2="76.4" y2="577.0" stroke="#ede7d8" stroke-opacity="0.55" stroke-width="1.5"/><text x="82.4" y="581.0" font-family="ui-monospace, SFMono-Regular, Consolas, 'Liberation Mono', monospace" font-size="11" fill="#a89e86" font-weight="400">0.31 ms</text><path d="M0.0,586.0 H256.8 Q260.8,586.0 260.8,590.0 V592.0 Q260.8,596.0 256.8,596.0 H0.0 Z" fill="#199e70"/><line x1="237.4" y1="591.0" x2="274.0" y2="591.0" stroke="#ede7d8" stroke-opacity="0.55" stroke-width="1.5"/><text x="280.0" y="595.0" font-family="ui-monospace, SFMono-Regular, Consolas, 'Liberation Mono', monospace" font-size="11" fill="#a89e86" font-weight="400">1.06 ms</text><path d="M0.0,600.0 H237.9 Q241.9,600.0 241.9,604.0 V606.0 Q241.9,610.0 237.9,610.0 H0.0 Z" fill="#c98500"/><line x1="236.6" y1="605.0" x2="243.0" y2="605.0" stroke="#ede7d8" stroke-opacity="0.55" stroke-width="1.5"/><text x="249.0" y="609.0" font-family="ui-monospace, SFMono-Regular, Consolas, 'Liberation Mono', monospace" font-size="11" fill="#a89e86" font-weight="400">0.98 ms</text><path d="M0.0,614.0 H115.0 Q119.0,614.0 119.0,618.0 V620.0 Q119.0,624.0 115.0,624.0 H0.0 Z" fill="#d55181"/><line x1="102.7" y1="619.0" x2="125.5" y2="619.0" stroke="#ede7d8" stroke-opacity="0.55" stroke-width="1.5"/><text x="131.5" y="623.0" font-family="ui-monospace, SFMono-Regular, Consolas, 'Liberation Mono', monospace" font-size="11" fill="#a89e86" font-weight="400">0.48 ms</text><path d="M0.0,628.0 H65.3 Q69.3,628.0 69.3,632.0 V634.0 Q69.3,638.0 65.3,638.0 H0.0 Z" fill="#9085e9"/><line x1="67.6" y1="633.0" x2="72.2" y2="633.0" stroke="#ede7d8" stroke-opacity="0.55" stroke-width="1.5"/><text x="78.2" y="637.0" font-family="ui-monospace, SFMono-Regular, Consolas, 'Liberation Mono', monospace" font-size="11" fill="#ede7d8" font-weight="700">0.28 ms</text><path d="M0.0,642.0 H156.2 Q160.2,642.0 160.2,646.0 V648.0 Q160.2,652.0 156.2,652.0 H0.0 Z" fill="#008300"/><line x1="154.2" y1="647.0" x2="163.2" y2="647.0" stroke="#ede7d8" stroke-opacity="0.55" stroke-width="1.5"/><text x="169.2" y="651.0" font-family="ui-monospace, SFMono-Regular, Consolas, 'Liberation Mono', monospace" font-size="11" fill="#a89e86" font-weight="400">0.65 ms</text><text x="398.0" y="562.0" font-family="system-ui, -apple-system, 'Segoe UI', Roboto, sans-serif" font-size="13.5" fill="#ede7d8" font-weight="600">distinct() values of a field</text><path d="M398.0,572.0 H453.3 Q457.3,572.0 457.3,576.0 V578.0 Q457.3,582.0 453.3,582.0 H398.0 Z" fill="#d95926"/><line x1="456.2" y1="577.0" x2="459.6" y2="577.0" stroke="#ede7d8" stroke-opacity="0.55" stroke-width="1.5"/><text x="465.6" y="581.0" font-family="ui-monospace, SFMono-Regular, Consolas, 'Liberation Mono', monospace" font-size="11" fill="#ede7d8" font-weight="700">0.14 ms</text><path d="M398.0,586.0 H629.8 Q633.8,586.0 633.8,590.0 V592.0 Q633.8,596.0 629.8,596.0 H398.0 Z" fill="#199e70"/><line x1="629.6" y1="591.0" x2="672.0" y2="591.0" stroke="#ede7d8" stroke-opacity="0.55" stroke-width="1.5"/><text x="678.0" y="595.0" font-family="ui-monospace, SFMono-Regular, Consolas, 'Liberation Mono', monospace" font-size="11" fill="#a89e86" font-weight="400">0.57 ms</text><path d="M398.0,600.0 H645.9 Q649.9,600.0 649.9,604.0 V606.0 Q649.9,610.0 645.9,610.0 H398.0 Z" fill="#c98500"/><line x1="630.5" y1="605.0" x2="654.0" y2="605.0" stroke="#ede7d8" stroke-opacity="0.55" stroke-width="1.5"/><text x="660.0" y="609.0" font-family="ui-monospace, SFMono-Regular, Consolas, 'Liberation Mono', monospace" font-size="11" fill="#a89e86" font-weight="400">0.61 ms</text><path d="M398.0,614.0 H462.1 Q466.1,614.0 466.1,618.0 V620.0 Q466.1,624.0 462.1,624.0 H398.0 Z" fill="#d55181"/><line x1="464.8" y1="619.0" x2="472.8" y2="619.0" stroke="#ede7d8" stroke-opacity="0.55" stroke-width="1.5"/><text x="478.8" y="623.0" font-family="ui-monospace, SFMono-Regular, Consolas, 'Liberation Mono', monospace" font-size="11" fill="#a89e86" font-weight="400">0.17 ms</text><path d="M398.0,628.0 H468.4 Q472.4,628.0 472.4,632.0 V634.0 Q472.4,638.0 468.4,638.0 H398.0 Z" fill="#9085e9"/><line x1="459.7" y1="633.0" x2="481.1" y2="633.0" stroke="#ede7d8" stroke-opacity="0.55" stroke-width="1.5"/><text x="487.1" y="637.0" font-family="ui-monospace, SFMono-Regular, Consolas, 'Liberation Mono', monospace" font-size="11" fill="#a89e86" font-weight="400">0.18 ms</text><path d="M398.0,642.0 H527.4 Q531.4,642.0 531.4,646.0 V648.0 Q531.4,652.0 527.4,652.0 H398.0 Z" fill="#008300"/><line x1="523.8" y1="647.0" x2="537.1" y2="647.0" stroke="#ede7d8" stroke-opacity="0.55" stroke-width="1.5"/><text x="543.1" y="651.0" font-family="ui-monospace, SFMono-Regular, Consolas, 'Liberation Mono', monospace" font-size="11" fill="#a89e86" font-weight="400">0.33 ms</text><text x="0.0" y="690.0" font-family="system-ui, -apple-system, 'Segoe UI', Roboto, sans-serif" font-size="13.5" fill="#ede7d8" font-weight="600">only(&quot;id&quot;, &quot;name&quot;)</text><path d="M0.0,700.0 H46.3 Q50.3,700.0 50.3,704.0 V706.0 Q50.3,710.0 46.3,710.0 H0.0 Z" fill="#d95926"/><line x1="46.5" y1="705.0" x2="52.1" y2="705.0" stroke="#ede7d8" stroke-opacity="0.55" stroke-width="1.5"/><text x="58.1" y="709.0" font-family="ui-monospace, SFMono-Regular, Consolas, 'Liberation Mono', monospace" font-size="11" fill="#ede7d8" font-weight="700">0.61 ms</text><path d="M0.0,714.0 H237.6 Q241.6,714.0 241.6,718.0 V720.0 Q241.6,724.0 237.6,724.0 H0.0 Z" fill="#199e70"/><line x1="239.9" y1="719.0" x2="248.4" y2="719.0" stroke="#ede7d8" stroke-opacity="0.55" stroke-width="1.5"/><text x="254.4" y="723.0" font-family="ui-monospace, SFMono-Regular, Consolas, 'Liberation Mono', monospace" font-size="11" fill="#a89e86" font-weight="400">2.92 ms</text><path d="M0.0,728.0 H233.3 Q237.3,728.0 237.3,732.0 V734.0 Q237.3,738.0 233.3,738.0 H0.0 Z" fill="#c98500"/><line x1="237.0" y1="733.0" x2="251.9" y2="733.0" stroke="#ede7d8" stroke-opacity="0.55" stroke-width="1.5"/><text x="257.9" y="737.0" font-family="ui-monospace, SFMono-Regular, Consolas, 'Liberation Mono', monospace" font-size="11" fill="#a89e86" font-weight="400">2.87 ms</text><path d="M0.0,742.0 H261.4 Q265.4,742.0 265.4,746.0 V748.0 Q265.4,752.0 261.4,752.0 H0.0 Z" fill="#d55181"/><line x1="255.2" y1="747.0" x2="274.0" y2="747.0" stroke="#ede7d8" stroke-opacity="0.55" stroke-width="1.5"/><text x="280.0" y="751.0" font-family="ui-monospace, SFMono-Regular, Consolas, 'Liberation Mono', monospace" font-size="11" fill="#a89e86" font-weight="400">3.21 ms</text><path d="M0.0,756.0 H46.9 Q50.9,756.0 50.9,760.0 V762.0 Q50.9,766.0 46.9,766.0 H0.0 Z" fill="#9085e9"/><line x1="49.0" y1="761.0" x2="51.6" y2="761.0" stroke="#ede7d8" stroke-opacity="0.55" stroke-width="1.5"/><text x="57.6" y="765.0" font-family="ui-monospace, SFMono-Regular, Consolas, 'Liberation Mono', monospace" font-size="11" fill="#a89e86" font-weight="400">0.61 ms</text><path d="M0.0,770.0 H208.9 Q212.9,770.0 212.9,774.0 V776.0 Q212.9,780.0 208.9,780.0 H0.0 Z" fill="#008300"/><line x1="208.9" y1="775.0" x2="220.4" y2="775.0" stroke="#ede7d8" stroke-opacity="0.55" stroke-width="1.5"/><text x="226.4" y="779.0" font-family="ui-monospace, SFMono-Regular, Consolas, 'Liberation Mono', monospace" font-size="11" fill="#a89e86" font-weight="400">2.57 ms</text><text x="398.0" y="690.0" font-family="system-ui, -apple-system, 'Segoe UI', Roboto, sans-serif" font-size="13.5" fill="#ede7d8" font-weight="600">OR + JOIN + distinct</text><path d="M398.0,700.0 H475.2 Q479.2,700.0 479.2,704.0 V706.0 Q479.2,710.0 475.2,710.0 H398.0 Z" fill="#d95926"/><line x1="478.6" y1="705.0" x2="490.4" y2="705.0" stroke="#ede7d8" stroke-opacity="0.55" stroke-width="1.5"/><text x="496.4" y="709.0" font-family="ui-monospace, SFMono-Regular, Consolas, 'Liberation Mono', monospace" font-size="11" fill="#ede7d8" font-weight="700">0.74 ms</text><path d="M398.0,714.0 H661.9 Q665.9,714.0 665.9,718.0 V720.0 Q665.9,724.0 661.9,724.0 H398.0 Z" fill="#199e70"/><line x1="630.0" y1="719.0" x2="672.0" y2="719.0" stroke="#ede7d8" stroke-opacity="0.55" stroke-width="1.5"/><text x="678.0" y="723.0" font-family="ui-monospace, SFMono-Regular, Consolas, 'Liberation Mono', monospace" font-size="11" fill="#a89e86" font-weight="400">2.44 ms</text><path d="M398.0,728.0 H630.0 Q634.0,728.0 634.0,732.0 V734.0 Q634.0,738.0 630.0,738.0 H398.0 Z" fill="#c98500"/><line x1="628.8" y1="733.0" x2="637.4" y2="733.0" stroke="#ede7d8" stroke-opacity="0.55" stroke-width="1.5"/><text x="643.4" y="737.0" font-family="ui-monospace, SFMono-Regular, Consolas, 'Liberation Mono', monospace" font-size="11" fill="#a89e86" font-weight="400">2.15 ms</text><path d="M398.0,742.0 H576.9 Q580.9,742.0 580.9,746.0 V748.0 Q580.9,752.0 576.9,752.0 H398.0 Z" fill="#d55181"/><text x="587.0" y="751.0" font-family="ui-monospace, SFMono-Regular, Consolas, 'Liberation Mono', monospace" font-size="11" fill="#a89e86" font-weight="400">1.66 ms</text><path d="M398.0,756.0 H543.4 Q547.4,756.0 547.4,760.0 V762.0 Q547.4,766.0 543.4,766.0 H398.0 Z" fill="#9085e9"/><line x1="544.3" y1="761.0" x2="549.7" y2="761.0" stroke="#ede7d8" stroke-opacity="0.55" stroke-width="1.5"/><text x="555.7" y="765.0" font-family="ui-monospace, SFMono-Regular, Consolas, 'Liberation Mono', monospace" font-size="11" fill="#a89e86" font-weight="400">1.36 ms</text><path d="M398.0,770.0 H618.5 Q622.5,770.0 622.5,774.0 V776.0 Q622.5,780.0 618.5,780.0 H398.0 Z" fill="#008300"/><line x1="618.2" y1="775.0" x2="623.6" y2="775.0" stroke="#ede7d8" stroke-opacity="0.55" stroke-width="1.5"/><text x="629.6" y="779.0" font-family="ui-monospace, SFMono-Regular, Consolas, 'Liberation Mono', monospace" font-size="11" fill="#a89e86" font-weight="400">2.04 ms</text><text x="0.0" y="818.0" font-family="system-ui, -apple-system, 'Segoe UI', Roboto, sans-serif" font-size="13.5" fill="#ede7d8" font-weight="600">id IN (200 values)</text><path d="M0.0,828.0 H74.5 Q78.5,828.0 78.5,832.0 V834.0 Q78.5,838.0 74.5,838.0 H0.0 Z" fill="#d95926"/><line x1="75.3" y1="833.0" x2="83.7" y2="833.0" stroke="#ede7d8" stroke-opacity="0.55" stroke-width="1.5"/><text x="89.7" y="837.0" font-family="ui-monospace, SFMono-Regular, Consolas, 'Liberation Mono', monospace" font-size="11" fill="#ede7d8" font-weight="700">0.71 ms</text><path d="M0.0,842.0 H257.1 Q261.1,842.0 261.1,846.0 V848.0 Q261.1,852.0 257.1,852.0 H0.0 Z" fill="#199e70"/><line x1="246.2" y1="847.0" x2="267.0" y2="847.0" stroke="#ede7d8" stroke-opacity="0.55" stroke-width="1.5"/><text x="273.0" y="851.0" font-family="ui-monospace, SFMono-Regular, Consolas, 'Liberation Mono', monospace" font-size="11" fill="#a89e86" font-weight="400">2.36 ms</text><path d="M0.0,856.0 H263.2 Q267.2,856.0 267.2,860.0 V862.0 Q267.2,866.0 263.2,866.0 H0.0 Z" fill="#c98500"/><line x1="251.8" y1="861.0" x2="274.0" y2="861.0" stroke="#ede7d8" stroke-opacity="0.55" stroke-width="1.5"/><text x="280.0" y="865.0" font-family="ui-monospace, SFMono-Regular, Consolas, 'Liberation Mono', monospace" font-size="11" fill="#a89e86" font-weight="400">2.42 ms</text><path d="M0.0,870.0 H182.1 Q186.1,870.0 186.1,874.0 V876.0 Q186.1,880.0 182.1,880.0 H0.0 Z" fill="#d55181"/><line x1="185.3" y1="875.0" x2="188.6" y2="875.0" stroke="#ede7d8" stroke-opacity="0.55" stroke-width="1.5"/><text x="194.6" y="879.0" font-family="ui-monospace, SFMono-Regular, Consolas, 'Liberation Mono', monospace" font-size="11" fill="#a89e86" font-weight="400">1.68 ms</text><path d="M0.0,884.0 H154.3 Q158.3,884.0 158.3,888.0 V890.0 Q158.3,894.0 154.3,894.0 H0.0 Z" fill="#9085e9"/><line x1="153.8" y1="889.0" x2="164.4" y2="889.0" stroke="#ede7d8" stroke-opacity="0.55" stroke-width="1.5"/><text x="170.4" y="893.0" font-family="ui-monospace, SFMono-Regular, Consolas, 'Liberation Mono', monospace" font-size="11" fill="#a89e86" font-weight="400">1.43 ms</text><path d="M0.0,898.0 H241.0 Q245.0,898.0 245.0,902.0 V904.0 Q245.0,908.0 241.0,908.0 H0.0 Z" fill="#008300"/><line x1="230.8" y1="903.0" x2="252.6" y2="903.0" stroke="#ede7d8" stroke-opacity="0.55" stroke-width="1.5"/><text x="258.6" y="907.0" font-family="ui-monospace, SFMono-Regular, Consolas, 'Liberation Mono', monospace" font-size="11" fill="#a89e86" font-weight="400">2.22 ms</text><text x="398.0" y="818.0" font-family="system-ui, -apple-system, 'Segoe UI', Roboto, sans-serif" font-size="13.5" fill="#ede7d8" font-weight="600">Iterating all rows in chunks</text><path d="M398.0,828.0 H461.6 Q465.6,828.0 465.6,832.0 V834.0 Q465.6,838.0 461.6,838.0 H398.0 Z" fill="#d95926"/><line x1="463.8" y1="833.0" x2="469.1" y2="833.0" stroke="#ede7d8" stroke-opacity="0.55" stroke-width="1.5"/><text x="475.1" y="837.0" font-family="ui-monospace, SFMono-Regular, Consolas, 'Liberation Mono', monospace" font-size="11" fill="#ede7d8" font-weight="700">3.71 ms</text><path d="M398.0,842.0 H633.2 Q637.2,842.0 637.2,846.0 V848.0 Q637.2,852.0 633.2,852.0 H398.0 Z" fill="#199e70"/><line x1="630.5" y1="847.0" x2="645.4" y2="847.0" stroke="#ede7d8" stroke-opacity="0.55" stroke-width="1.5"/><text x="651.4" y="851.0" font-family="ui-monospace, SFMono-Regular, Consolas, 'Liberation Mono', monospace" font-size="11" fill="#a89e86" font-weight="400">13.1 ms</text><path d="M398.0,856.0 H642.1 Q646.1,856.0 646.1,860.0 V862.0 Q646.1,866.0 642.1,866.0 H398.0 Z" fill="#c98500"/><line x1="644.4" y1="861.0" x2="672.0" y2="861.0" stroke="#ede7d8" stroke-opacity="0.55" stroke-width="1.5"/><text x="678.0" y="865.0" font-family="ui-monospace, SFMono-Regular, Consolas, 'Liberation Mono', monospace" font-size="11" fill="#a89e86" font-weight="400">13.6 ms</text><text x="398.0" y="879.0" font-family="system-ui, -apple-system, 'Segoe UI', Roboto, sans-serif" font-size="11" fill="#a89e86" font-style="italic">not in this ORM</text><text x="398.0" y="893.0" font-family="system-ui, -apple-system, 'Segoe UI', Roboto, sans-serif" font-size="11" fill="#a89e86" font-style="italic">not in this ORM</text><path d="M398.0,898.0 H560.3 Q564.3,898.0 564.3,902.0 V904.0 Q564.3,908.0 560.3,908.0 H398.0 Z" fill="#008300"/><line x1="564.2" y1="903.0" x2="567.5" y2="903.0" stroke="#ede7d8" stroke-opacity="0.55" stroke-width="1.5"/><text x="573.5" y="907.0" font-family="ui-monospace, SFMono-Regular, Consolas, 'Liberation Mono', monospace" font-size="11" fill="#a89e86" font-weight="400">9.14 ms</text><text x="0.0" y="946.0" font-family="system-ui, -apple-system, 'Segoe UI', Roboto, sans-serif" font-size="13.5" fill="#ede7d8" font-weight="600">Reading a JSON field</text><path d="M0.0,956.0 H72.2 Q76.2,956.0 76.2,960.0 V962.0 Q76.2,966.0 72.2,966.0 H0.0 Z" fill="#d95926"/><line x1="74.1" y1="961.0" x2="77.7" y2="961.0" stroke="#ede7d8" stroke-opacity="0.55" stroke-width="1.5"/><text x="83.7" y="965.0" font-family="ui-monospace, SFMono-Regular, Consolas, 'Liberation Mono', monospace" font-size="11" fill="#ede7d8" font-weight="700">3.51 ms</text><path d="M0.0,970.0 H185.9 Q189.9,970.0 189.9,974.0 V976.0 Q189.9,980.0 185.9,980.0 H0.0 Z" fill="#199e70"/><line x1="187.0" y1="975.0" x2="193.6" y2="975.0" stroke="#ede7d8" stroke-opacity="0.55" stroke-width="1.5"/><text x="199.6" y="979.0" font-family="ui-monospace, SFMono-Regular, Consolas, 'Liberation Mono', monospace" font-size="11" fill="#a89e86" font-weight="400">8.76 ms</text><path d="M0.0,984.0 H172.5 Q176.5,984.0 176.5,988.0 V990.0 Q176.5,994.0 172.5,994.0 H0.0 Z" fill="#c98500"/><line x1="166.6" y1="989.0" x2="180.0" y2="989.0" stroke="#ede7d8" stroke-opacity="0.55" stroke-width="1.5"/><text x="186.0" y="993.0" font-family="ui-monospace, SFMono-Regular, Consolas, 'Liberation Mono', monospace" font-size="11" fill="#a89e86" font-weight="400">8.14 ms</text><path d="M0.0,998.0 H136.4 Q140.4,998.0 140.4,1002.0 V1004.0 Q140.4,1008.0 136.4,1008.0 H0.0 Z" fill="#d55181"/><line x1="137.7" y1="1003.0" x2="146.4" y2="1003.0" stroke="#ede7d8" stroke-opacity="0.55" stroke-width="1.5"/><text x="152.4" y="1007.0" font-family="ui-monospace, SFMono-Regular, Consolas, 'Liberation Mono', monospace" font-size="11" fill="#a89e86" font-weight="400">6.47 ms</text><path d="M0.0,1012.0 H269.6 Q273.6,1012.0 273.6,1016.0 V1018.0 Q273.6,1022.0 269.6,1022.0 H0.0 Z" fill="#9085e9"/><line x1="266.8" y1="1017.0" x2="274.0" y2="1017.0" stroke="#ede7d8" stroke-opacity="0.55" stroke-width="1.5"/><text x="280.0" y="1021.0" font-family="ui-monospace, SFMono-Regular, Consolas, 'Liberation Mono', monospace" font-size="11" fill="#a89e86" font-weight="400">12.6 ms</text><path d="M0.0,1026.0 H186.5 Q190.5,1026.0 190.5,1030.0 V1032.0 Q190.5,1036.0 186.5,1036.0 H0.0 Z" fill="#008300"/><line x1="160.9" y1="1031.0" x2="197.6" y2="1031.0" stroke="#ede7d8" stroke-opacity="0.55" stroke-width="1.5"/><text x="203.6" y="1035.0" font-family="ui-monospace, SFMono-Regular, Consolas, 'Liberation Mono', monospace" font-size="11" fill="#a89e86" font-weight="400">8.79 ms</text></g></svg>
