<svg xmlns="http://www.w3.org/2000/svg" viewBox="0 0 800 588" width="800" height="588" role="img"><title>Агрегаты</title><rect width="800" height="588" rx="10" fill="#faf9f4"/><g transform="translate(20,20)"><rect x="0.0" y="3.0" width="12" height="12" rx="3" fill="#eb6834"/><text x="18.0" y="13.5" font-family="system-ui, -apple-system, 'Segoe UI', Roboto, sans-serif" font-size="13" fill="#1e1b15">hare</text><rect x="68.8" y="3.0" width="12" height="12" rx="3" fill="#1baf7a"/><text x="86.8" y="13.5" font-family="system-ui, -apple-system, 'Segoe UI', Roboto, sans-serif" font-size="13" fill="#1e1b15">SQLAlchemy</text><rect x="180.8" y="3.0" width="12" height="12" rx="3" fill="#eda100"/><text x="198.8" y="13.5" font-family="system-ui, -apple-system, 'Segoe UI', Roboto, sans-serif" font-size="13" fill="#1e1b15">SQLAlchemy (autocommit)</text><rect x="386.4" y="3.0" width="12" height="12" rx="3" fill="#e87ba4"/><text x="404.4" y="13.5" font-family="system-ui, -apple-system, 'Segoe UI', Roboto, sans-serif" font-size="13" fill="#1e1b15">tortoise-orm</text><rect x="512.8" y="3.0" width="12" height="12" rx="3" fill="#4a3aa7"/><text x="530.8" y="13.5" font-family="system-ui, -apple-system, 'Segoe UI', Roboto, sans-serif" font-size="13" fill="#1e1b15">yara-orm</text><rect x="610.4" y="3.0" width="12" height="12" rx="3" fill="#008300"/><text x="628.4" y="13.5" font-family="system-ui, -apple-system, 'Segoe UI', Roboto, sans-serif" font-size="13" fill="#1e1b15">Django</text><text x="0.0" y="50.0" font-family="system-ui, -apple-system, 'Segoe UI', Roboto, sans-serif" font-size="13.5" fill="#1e1b15" font-weight="600">count()</text><path d="M0.0,60.0 H34.3 Q38.3,60.0 38.3,64.0 V66.0 Q38.3,70.0 34.3,70.0 H0.0 Z" fill="#eb6834"/><text x="45.0" y="69.0" font-family="ui-monospace, SFMono-Regular, Consolas, 'Liberation Mono', monospace" font-size="11" fill="#1e1b15" font-weight="700">0,12 мс</text><path d="M0.0,74.0 H224.3 Q228.3,74.0 228.3,78.0 V80.0 Q228.3,84.0 224.3,84.0 H0.0 Z" fill="#1baf7a"/><line x1="211.8" y1="79.0" x2="229.8" y2="79.0" stroke="#1e1b15" stroke-opacity="0.55" stroke-width="1.5"/><text x="235.8" y="83.0" font-family="ui-monospace, SFMono-Regular, Consolas, 'Liberation Mono', monospace" font-size="11" fill="#6e6654" font-weight="400">0,69 мс</text><path d="M0.0,88.0 H244.7 Q248.7,88.0 248.7,92.0 V94.0 Q248.7,98.0 244.7,98.0 H0.0 Z" fill="#eda100"/><line x1="219.0" y1="93.0" x2="274.0" y2="93.0" stroke="#1e1b15" stroke-opacity="0.55" stroke-width="1.5"/><text x="280.0" y="97.0" font-family="ui-monospace, SFMono-Regular, Consolas, 'Liberation Mono', monospace" font-size="11" fill="#6e6654" font-weight="400">0,75 мс</text><path d="M0.0,102.0 H44.5 Q48.5,102.0 48.5,106.0 V108.0 Q48.5,112.0 44.5,112.0 H0.0 Z" fill="#e87ba4"/><line x1="45.5" y1="107.0" x2="49.8" y2="107.0" stroke="#1e1b15" stroke-opacity="0.55" stroke-width="1.5"/><text x="55.8" y="111.0" font-family="ui-monospace, SFMono-Regular, Consolas, 'Liberation Mono', monospace" font-size="11" fill="#6e6654" font-weight="400">0,15 мс</text><path d="M0.0,116.0 H55.5 Q59.5,116.0 59.5,120.0 V122.0 Q59.5,126.0 55.5,126.0 H0.0 Z" fill="#4a3aa7"/><line x1="52.7" y1="121.0" x2="75.3" y2="121.0" stroke="#1e1b15" stroke-opacity="0.55" stroke-width="1.5"/><text x="81.3" y="125.0" font-family="ui-monospace, SFMono-Regular, Consolas, 'Liberation Mono', monospace" font-size="11" fill="#6e6654" font-weight="400">0,18 мс</text><path d="M0.0,130.0 H125.7 Q129.7,130.0 129.7,134.0 V136.0 Q129.7,140.0 125.7,140.0 H0.0 Z" fill="#008300"/><line x1="126.0" y1="135.0" x2="132.8" y2="135.0" stroke="#1e1b15" stroke-opacity="0.55" stroke-width="1.5"/><text x="138.8" y="139.0" font-family="ui-monospace, SFMono-Regular, Consolas, 'Liberation Mono', monospace" font-size="11" fill="#6e6654" font-weight="400">0,39 мс</text><text x="398.0" y="50.0" font-family="system-ui, -apple-system, 'Segoe UI', Roboto, sans-serif" font-size="13.5" fill="#1e1b15" font-weight="600">Sum, Avg, Max, Min</text><path d="M398.0,60.0 H456.6 Q460.6,60.0 460.6,64.0 V66.0 Q460.6,70.0 456.6,70.0 H398.0 Z" fill="#eb6834"/><line x1="458.5" y1="65.0" x2="461.1" y2="65.0" stroke="#1e1b15" stroke-opacity="0.55" stroke-width="1.5"/><text x="467.1" y="69.0" font-family="ui-monospace, SFMono-Regular, Consolas, 'Liberation Mono', monospace" font-size="11" fill="#1e1b15" font-weight="700">0,19 мс</text><path d="M398.0,74.0 H632.4 Q636.4,74.0 636.4,78.0 V80.0 Q636.4,84.0 632.4,84.0 H398.0 Z" fill="#1baf7a"/><line x1="613.9" y1="79.0" x2="672.0" y2="79.0" stroke="#1e1b15" stroke-opacity="0.55" stroke-width="1.5"/><text x="678.0" y="83.0" font-family="ui-monospace, SFMono-Regular, Consolas, 'Liberation Mono', monospace" font-size="11" fill="#6e6654" font-weight="400">0,71 мс</text><path d="M398.0,88.0 H620.8 Q624.8,88.0 624.8,92.0 V94.0 Q624.8,98.0 620.8,98.0 H398.0 Z" fill="#eda100"/><line x1="618.8" y1="93.0" x2="643.2" y2="93.0" stroke="#1e1b15" stroke-opacity="0.55" stroke-width="1.5"/><text x="649.2" y="97.0" font-family="ui-monospace, SFMono-Regular, Consolas, 'Liberation Mono', monospace" font-size="11" fill="#6e6654" font-weight="400">0,68 мс</text><path d="M398.0,102.0 H489.9 Q493.9,102.0 493.9,106.0 V108.0 Q493.9,112.0 489.9,112.0 H398.0 Z" fill="#e87ba4"/><text x="500.2" y="111.0" font-family="ui-monospace, SFMono-Regular, Consolas, 'Liberation Mono', monospace" font-size="11" fill="#6e6654" font-weight="400">0,29 мс</text><path d="M398.0,116.0 H474.3 Q478.3,116.0 478.3,120.0 V122.0 Q478.3,126.0 474.3,126.0 H398.0 Z" fill="#4a3aa7"/><line x1="466.5" y1="121.0" x2="484.8" y2="121.0" stroke="#1e1b15" stroke-opacity="0.55" stroke-width="1.5"/><text x="490.8" y="125.0" font-family="ui-monospace, SFMono-Regular, Consolas, 'Liberation Mono', monospace" font-size="11" fill="#6e6654" font-weight="400">0,24 мс</text><path d="M398.0,130.0 H575.8 Q579.8,130.0 579.8,134.0 V136.0 Q579.8,140.0 575.8,140.0 H398.0 Z" fill="#008300"/><line x1="577.1" y1="135.0" x2="584.7" y2="135.0" stroke="#1e1b15" stroke-opacity="0.55" stroke-width="1.5"/><text x="590.7" y="139.0" font-family="ui-monospace, SFMono-Regular, Consolas, 'Liberation Mono', monospace" font-size="11" fill="#6e6654" font-weight="400">0,54 мс</text><text x="0.0" y="178.0" font-family="system-ui, -apple-system, 'Segoe UI', Roboto, sans-serif" font-size="13.5" fill="#1e1b15" font-weight="600">Count с условием</text><path d="M0.0,188.0 H41.8 Q45.8,188.0 45.8,192.0 V194.0 Q45.8,198.0 41.8,198.0 H0.0 Z" fill="#eb6834"/><line x1="45.2" y1="193.0" x2="47.4" y2="193.0" stroke="#1e1b15" stroke-opacity="0.55" stroke-width="1.5"/><text x="53.4" y="197.0" font-family="ui-monospace, SFMono-Regular, Consolas, 'Liberation Mono', monospace" font-size="11" fill="#1e1b15" font-weight="700">0,12 мс</text><path d="M0.0,202.0 H252.1 Q256.1,202.0 256.1,206.0 V208.0 Q256.1,212.0 252.1,212.0 H0.0 Z" fill="#1baf7a"/><line x1="214.6" y1="207.0" x2="257.3" y2="207.0" stroke="#1e1b15" stroke-opacity="0.55" stroke-width="1.5"/><text x="263.3" y="211.0" font-family="ui-monospace, SFMono-Regular, Consolas, 'Liberation Mono', monospace" font-size="11" fill="#6e6654" font-weight="400">0,69 мс</text><path d="M0.0,216.0 H233.7 Q237.7,216.0 237.7,220.0 V222.0 Q237.7,226.0 233.7,226.0 H0.0 Z" fill="#eda100"/><line x1="214.1" y1="221.0" x2="274.0" y2="221.0" stroke="#1e1b15" stroke-opacity="0.55" stroke-width="1.5"/><text x="280.0" y="225.0" font-family="ui-monospace, SFMono-Regular, Consolas, 'Liberation Mono', monospace" font-size="11" fill="#6e6654" font-weight="400">0,64 мс</text><path d="M0.0,230.0 H65.9 Q69.9,230.0 69.9,234.0 V236.0 Q69.9,240.0 65.9,240.0 H0.0 Z" fill="#e87ba4"/><line x1="68.0" y1="235.0" x2="85.5" y2="235.0" stroke="#1e1b15" stroke-opacity="0.55" stroke-width="1.5"/><text x="91.5" y="239.0" font-family="ui-monospace, SFMono-Regular, Consolas, 'Liberation Mono', monospace" font-size="11" fill="#6e6654" font-weight="400">0,19 мс</text><path d="M0.0,244.0 H64.9 Q68.9,244.0 68.9,248.0 V250.0 Q68.9,254.0 64.9,254.0 H0.0 Z" fill="#4a3aa7"/><line x1="53.5" y1="249.0" x2="76.0" y2="249.0" stroke="#1e1b15" stroke-opacity="0.55" stroke-width="1.5"/><text x="82.0" y="253.0" font-family="ui-monospace, SFMono-Regular, Consolas, 'Liberation Mono', monospace" font-size="11" fill="#6e6654" font-weight="400">0,18 мс</text><path d="M0.0,258.0 H155.4 Q159.4,258.0 159.4,262.0 V264.0 Q159.4,268.0 155.4,268.0 H0.0 Z" fill="#008300"/><line x1="153.4" y1="263.0" x2="166.1" y2="263.0" stroke="#1e1b15" stroke-opacity="0.55" stroke-width="1.5"/><text x="172.1" y="267.0" font-family="ui-monospace, SFMono-Regular, Consolas, 'Liberation Mono', monospace" font-size="11" fill="#6e6654" font-weight="400">0,43 мс</text><text x="398.0" y="178.0" font-family="system-ui, -apple-system, 'Segoe UI', Roboto, sans-serif" font-size="13.5" fill="#1e1b15" font-weight="600">GROUP BY</text><path d="M398.0,188.0 H486.4 Q490.4,188.0 490.4,192.0 V194.0 Q490.4,198.0 486.4,198.0 H398.0 Z" fill="#eb6834"/><line x1="487.3" y1="193.0" x2="505.0" y2="193.0" stroke="#1e1b15" stroke-opacity="0.55" stroke-width="1.5"/><text x="511.0" y="197.0" font-family="ui-monospace, SFMono-Regular, Consolas, 'Liberation Mono', monospace" font-size="11" fill="#1e1b15" font-weight="700">0,30 мс</text><path d="M398.0,202.0 H638.6 Q642.6,202.0 642.6,206.0 V208.0 Q642.6,212.0 638.6,212.0 H398.0 Z" fill="#1baf7a"/><line x1="623.9" y1="207.0" x2="651.8" y2="207.0" stroke="#1e1b15" stroke-opacity="0.55" stroke-width="1.5"/><text x="657.8" y="211.0" font-family="ui-monospace, SFMono-Regular, Consolas, 'Liberation Mono', monospace" font-size="11" fill="#6e6654" font-weight="400">0,81 мс</text><path d="M398.0,216.0 H658.9 Q662.9,216.0 662.9,220.0 V222.0 Q662.9,226.0 658.9,226.0 H398.0 Z" fill="#eda100"/><line x1="643.1" y1="221.0" x2="672.0" y2="221.0" stroke="#1e1b15" stroke-opacity="0.55" stroke-width="1.5"/><text x="678.0" y="225.0" font-family="ui-monospace, SFMono-Regular, Consolas, 'Liberation Mono', monospace" font-size="11" fill="#6e6654" font-weight="400">0,87 мс</text><path d="M398.0,230.0 H504.1 Q508.1,230.0 508.1,234.0 V236.0 Q508.1,240.0 504.1,240.0 H398.0 Z" fill="#e87ba4"/><text x="514.6" y="239.0" font-family="ui-monospace, SFMono-Regular, Consolas, 'Liberation Mono', monospace" font-size="11" fill="#6e6654" font-weight="400">0,36 мс</text><path d="M398.0,244.0 H495.0 Q499.0,244.0 499.0,248.0 V250.0 Q499.0,254.0 495.0,254.0 H398.0 Z" fill="#4a3aa7"/><line x1="488.9" y1="249.0" x2="509.7" y2="249.0" stroke="#1e1b15" stroke-opacity="0.55" stroke-width="1.5"/><text x="515.7" y="253.0" font-family="ui-monospace, SFMono-Regular, Consolas, 'Liberation Mono', monospace" font-size="11" fill="#6e6654" font-weight="400">0,33 мс</text><path d="M398.0,258.0 H578.5 Q582.5,258.0 582.5,262.0 V264.0 Q582.5,268.0 578.5,268.0 H398.0 Z" fill="#008300"/><line x1="579.0" y1="263.0" x2="599.8" y2="263.0" stroke="#1e1b15" stroke-opacity="0.55" stroke-width="1.5"/><text x="605.8" y="267.0" font-family="ui-monospace, SFMono-Regular, Consolas, 'Liberation Mono', monospace" font-size="11" fill="#6e6654" font-weight="400">0,61 мс</text><text x="0.0" y="306.0" font-family="system-ui, -apple-system, 'Segoe UI', Roboto, sans-serif" font-size="13.5" fill="#1e1b15" font-weight="600">HAVING по агрегату</text><path d="M0.0,316.0 H77.8 Q81.8,316.0 81.8,320.0 V322.0 Q81.8,326.0 77.8,326.0 H0.0 Z" fill="#eb6834"/><line x1="79.4" y1="321.0" x2="103.3" y2="321.0" stroke="#1e1b15" stroke-opacity="0.55" stroke-width="1.5"/><text x="109.3" y="325.0" font-family="ui-monospace, SFMono-Regular, Consolas, 'Liberation Mono', monospace" font-size="11" fill="#6e6654" font-weight="400">0,30 мс</text><path d="M0.0,330.0 H228.3 Q232.3,330.0 232.3,334.0 V336.0 Q232.3,340.0 228.3,340.0 H0.0 Z" fill="#1baf7a"/><line x1="202.5" y1="335.0" x2="235.4" y2="335.0" stroke="#1e1b15" stroke-opacity="0.55" stroke-width="1.5"/><text x="241.4" y="339.0" font-family="ui-monospace, SFMono-Regular, Consolas, 'Liberation Mono', monospace" font-size="11" fill="#6e6654" font-weight="400">0,85 мс</text><path d="M0.0,344.0 H216.8 Q220.8,344.0 220.8,348.0 V350.0 Q220.8,354.0 216.8,354.0 H0.0 Z" fill="#eda100"/><line x1="212.8" y1="349.0" x2="274.0" y2="349.0" stroke="#1e1b15" stroke-opacity="0.55" stroke-width="1.5"/><text x="280.0" y="353.0" font-family="ui-monospace, SFMono-Regular, Consolas, 'Liberation Mono', monospace" font-size="11" fill="#6e6654" font-weight="400">0,81 мс</text><path d="M0.0,358.0 H92.7 Q96.7,358.0 96.7,362.0 V364.0 Q96.7,368.0 92.7,368.0 H0.0 Z" fill="#e87ba4"/><line x1="93.8" y1="363.0" x2="99.3" y2="363.0" stroke="#1e1b15" stroke-opacity="0.55" stroke-width="1.5"/><text x="105.3" y="367.0" font-family="ui-monospace, SFMono-Regular, Consolas, 'Liberation Mono', monospace" font-size="11" fill="#6e6654" font-weight="400">0,35 мс</text><path d="M0.0,372.0 H77.4 Q81.4,372.0 81.4,376.0 V378.0 Q81.4,382.0 77.4,382.0 H0.0 Z" fill="#4a3aa7"/><line x1="73.5" y1="377.0" x2="87.6" y2="377.0" stroke="#1e1b15" stroke-opacity="0.55" stroke-width="1.5"/><text x="93.6" y="381.0" font-family="ui-monospace, SFMono-Regular, Consolas, 'Liberation Mono', monospace" font-size="11" fill="#1e1b15" font-weight="700">0,30 мс</text><path d="M0.0,386.0 H164.3 Q168.3,386.0 168.3,390.0 V392.0 Q168.3,396.0 164.3,396.0 H0.0 Z" fill="#008300"/><line x1="164.0" y1="391.0" x2="186.5" y2="391.0" stroke="#1e1b15" stroke-opacity="0.55" stroke-width="1.5"/><text x="192.5" y="395.0" font-family="ui-monospace, SFMono-Regular, Consolas, 'Liberation Mono', monospace" font-size="11" fill="#6e6654" font-weight="400">0,62 мс</text><text x="398.0" y="306.0" font-family="system-ui, -apple-system, 'Segoe UI', Roboto, sans-serif" font-size="13.5" fill="#1e1b15" font-weight="600">annotate + values</text><path d="M398.0,316.0 H519.2 Q523.2,316.0 523.2,320.0 V322.0 Q523.2,326.0 519.2,326.0 H398.0 Z" fill="#eb6834"/><line x1="521.7" y1="321.0" x2="524.0" y2="321.0" stroke="#1e1b15" stroke-opacity="0.55" stroke-width="1.5"/><text x="530.0" y="325.0" font-family="ui-monospace, SFMono-Regular, Consolas, 'Liberation Mono', monospace" font-size="11" fill="#1e1b15" font-weight="700">0,77 мс</text><path d="M398.0,330.0 H636.1 Q640.1,330.0 640.1,334.0 V336.0 Q640.1,340.0 636.1,340.0 H398.0 Z" fill="#1baf7a"/><line x1="626.9" y1="335.0" x2="654.7" y2="335.0" stroke="#1e1b15" stroke-opacity="0.55" stroke-width="1.5"/><text x="660.7" y="339.0" font-family="ui-monospace, SFMono-Regular, Consolas, 'Liberation Mono', monospace" font-size="11" fill="#6e6654" font-weight="400">1,50 мс</text><path d="M398.0,344.0 H628.2 Q632.2,344.0 632.2,348.0 V350.0 Q632.2,354.0 628.2,354.0 H398.0 Z" fill="#eda100"/><line x1="623.1" y1="349.0" x2="672.0" y2="349.0" stroke="#1e1b15" stroke-opacity="0.55" stroke-width="1.5"/><text x="678.0" y="353.0" font-family="ui-monospace, SFMono-Regular, Consolas, 'Liberation Mono', monospace" font-size="11" fill="#6e6654" font-weight="400">1,45 мс</text><path d="M398.0,358.0 H550.0 Q554.0,358.0 554.0,362.0 V364.0 Q554.0,368.0 550.0,368.0 H398.0 Z" fill="#e87ba4"/><line x1="553.9" y1="363.0" x2="568.3" y2="363.0" stroke="#1e1b15" stroke-opacity="0.55" stroke-width="1.5"/><text x="574.3" y="367.0" font-family="ui-monospace, SFMono-Regular, Consolas, 'Liberation Mono', monospace" font-size="11" fill="#6e6654" font-weight="400">0,96 мс</text><path d="M398.0,372.0 H550.0 Q554.0,372.0 554.0,376.0 V378.0 Q554.0,382.0 550.0,382.0 H398.0 Z" fill="#4a3aa7"/><line x1="553.4" y1="377.0" x2="556.0" y2="377.0" stroke="#1e1b15" stroke-opacity="0.55" stroke-width="1.5"/><text x="562.0" y="381.0" font-family="ui-monospace, SFMono-Regular, Consolas, 'Liberation Mono', monospace" font-size="11" fill="#6e6654" font-weight="400">0,96 мс</text><path d="M398.0,386.0 H630.2 Q634.2,386.0 634.2,390.0 V392.0 Q634.2,396.0 630.2,396.0 H398.0 Z" fill="#008300"/><line x1="630.0" y1="391.0" x2="636.2" y2="391.0" stroke="#1e1b15" stroke-opacity="0.55" stroke-width="1.5"/><text x="642.2" y="395.0" font-family="ui-monospace, SFMono-Regular, Consolas, 'Liberation Mono', monospace" font-size="11" fill="#6e6654" font-weight="400">1,46 мс</text><text x="0.0" y="434.0" font-family="system-ui, -apple-system, 'Segoe UI', Roboto, sans-serif" font-size="13.5" fill="#1e1b15" font-weight="600">Case / When</text><path d="M0.0,444.0 H96.1 Q100.1,444.0 100.1,448.0 V450.0 Q100.1,454.0 96.1,454.0 H0.0 Z" fill="#eb6834"/><line x1="98.3" y1="449.0" x2="100.8" y2="449.0" stroke="#1e1b15" stroke-opacity="0.55" stroke-width="1.5"/><text x="106.8" y="453.0" font-family="ui-monospace, SFMono-Regular, Consolas, 'Liberation Mono', monospace" font-size="11" fill="#1e1b15" font-weight="700">0,63 мс</text><path d="M0.0,458.0 H202.9 Q206.9,458.0 206.9,462.0 V464.0 Q206.9,468.0 202.9,468.0 H0.0 Z" fill="#1baf7a"/><line x1="196.0" y1="463.0" x2="229.5" y2="463.0" stroke="#1e1b15" stroke-opacity="0.55" stroke-width="1.5"/><text x="235.5" y="467.0" font-family="ui-monospace, SFMono-Regular, Consolas, 'Liberation Mono', monospace" font-size="11" fill="#6e6654" font-weight="400">1,30 мс</text><path d="M0.0,472.0 H226.1 Q230.1,472.0 230.1,476.0 V478.0 Q230.1,482.0 226.1,482.0 H0.0 Z" fill="#eda100"/><line x1="206.6" y1="477.0" x2="274.0" y2="477.0" stroke="#1e1b15" stroke-opacity="0.55" stroke-width="1.5"/><text x="280.0" y="481.0" font-family="ui-monospace, SFMono-Regular, Consolas, 'Liberation Mono', monospace" font-size="11" fill="#6e6654" font-weight="400">1,45 мс</text><path d="M0.0,486.0 H134.8 Q138.8,486.0 138.8,490.0 V492.0 Q138.8,496.0 134.8,496.0 H0.0 Z" fill="#e87ba4"/><line x1="133.6" y1="491.0" x2="149.7" y2="491.0" stroke="#1e1b15" stroke-opacity="0.55" stroke-width="1.5"/><text x="155.7" y="495.0" font-family="ui-monospace, SFMono-Regular, Consolas, 'Liberation Mono', monospace" font-size="11" fill="#6e6654" font-weight="400">0,87 мс</text><path d="M0.0,500.0 H123.1 Q127.1,500.0 127.1,504.0 V506.0 Q127.1,510.0 123.1,510.0 H0.0 Z" fill="#4a3aa7"/><line x1="124.8" y1="505.0" x2="131.6" y2="505.0" stroke="#1e1b15" stroke-opacity="0.55" stroke-width="1.5"/><text x="137.6" y="509.0" font-family="ui-monospace, SFMono-Regular, Consolas, 'Liberation Mono', monospace" font-size="11" fill="#6e6654" font-weight="400">0,80 мс</text><path d="M0.0,514.0 H195.8 Q199.8,514.0 199.8,518.0 V520.0 Q199.8,524.0 195.8,524.0 H0.0 Z" fill="#008300"/><line x1="194.7" y1="519.0" x2="226.4" y2="519.0" stroke="#1e1b15" stroke-opacity="0.55" stroke-width="1.5"/><text x="232.4" y="523.0" font-family="ui-monospace, SFMono-Regular, Consolas, 'Liberation Mono', monospace" font-size="11" fill="#6e6654" font-weight="400">1,26 мс</text><text x="398.0" y="434.0" font-family="system-ui, -apple-system, 'Segoe UI', Roboto, sans-serif" font-size="13.5" fill="#1e1b15" font-weight="600">Окно: Rank() по категории</text><path d="M398.0,444.0 H537.7 Q541.7,444.0 541.7,448.0 V450.0 Q541.7,454.0 537.7,454.0 H398.0 Z" fill="#eb6834"/><line x1="538.4" y1="449.0" x2="543.2" y2="449.0" stroke="#1e1b15" stroke-opacity="0.55" stroke-width="1.5"/><text x="549.2" y="453.0" font-family="ui-monospace, SFMono-Regular, Consolas, 'Liberation Mono', monospace" font-size="11" fill="#1e1b15" font-weight="700">1,10 мс</text><path d="M398.0,458.0 H637.6 Q641.6,458.0 641.6,462.0 V464.0 Q641.6,468.0 637.6,468.0 H398.0 Z" fill="#1baf7a"/><line x1="627.2" y1="463.0" x2="654.6" y2="463.0" stroke="#1e1b15" stroke-opacity="0.55" stroke-width="1.5"/><text x="660.6" y="467.0" font-family="ui-monospace, SFMono-Regular, Consolas, 'Liberation Mono', monospace" font-size="11" fill="#6e6654" font-weight="400">1,86 мс</text><path d="M398.0,472.0 H643.8 Q647.8,472.0 647.8,476.0 V478.0 Q647.8,482.0 643.8,482.0 H398.0 Z" fill="#eda100"/><line x1="647.1" y1="477.0" x2="672.0" y2="477.0" stroke="#1e1b15" stroke-opacity="0.55" stroke-width="1.5"/><text x="678.0" y="481.0" font-family="ui-monospace, SFMono-Regular, Consolas, 'Liberation Mono', monospace" font-size="11" fill="#6e6654" font-weight="400">1,91 мс</text><text x="398.0" y="495.0" font-family="system-ui, -apple-system, 'Segoe UI', Roboto, sans-serif" font-size="11" fill="#6e6654" font-style="italic">нет в этой ORM</text><text x="398.0" y="509.0" font-family="system-ui, -apple-system, 'Segoe UI', Roboto, sans-serif" font-size="11" fill="#6e6654" font-style="italic">нет в этой ORM</text><path d="M398.0,514.0 H624.2 Q628.2,514.0 628.2,518.0 V520.0 Q628.2,524.0 624.2,524.0 H398.0 Z" fill="#008300"/><line x1="626.7" y1="519.0" x2="631.6" y2="519.0" stroke="#1e1b15" stroke-opacity="0.55" stroke-width="1.5"/><text x="637.6" y="523.0" font-family="ui-monospace, SFMono-Regular, Consolas, 'Liberation Mono', monospace" font-size="11" fill="#6e6654" font-weight="400">1,76 мс</text></g></svg>
